<?xml version="1.0" encoding="utf-8"?>
<?xml-stylesheet type="text/css" href="../../css/lamp-style.css"?>
<!-- Generator: Adobe Illustrator 19.0.0, SVG Export Plug-In . SVG Version: 6.00 Build 0)  -->
<svg version="1.1" id="creative" xmlns="http://www.w3.org/2000/svg" xmlns:xlink="http://www.w3.org/1999/xlink" x="0px" y="0px"
	 viewBox="2010.9 -140.6 135 479.5" style="enable-background:new 2010.9 -140.6 135 479.5;" xml:space="preserve">
<style type="text/css">
	.st1{fill:none;stroke:#FFFFFF;stroke-miterlimit:10;}
	.st2{opacity:0.58;fill:none;stroke:#FFFFFF;stroke-miterlimit:10;enable-background:new    ;}
</style>
<g>
	<path class="st0" d="M2145.3,331.2l-98.2,5.2l-35.7,1.9c0,0,2.8-59.6,58.3-64.1c2.2-0.2,4.4-0.3,6.8-0.3c0.6,0,1.2,0,1.8,0
		c13.8,0.2,24.7,3.4,33.5,8C2141.4,297.8,2145.3,331.2,2145.3,331.2z"/>
	<polygon class="st1" points="2078.8,274 2078.3,274 2069.7,274.5 2069.7,274.3 2071.8,251.9 2077.9,251.9 	"/>
	<polyline class="st2" points="2069.7,274.3 2071.8,-140.1 2077.9,-140.1 2078.8,274 2078.3,274 	"/>
</g>
</svg>
