<?xml version="1.0" encoding="utf-8"?>
<!-- Generator: Adobe Illustrator 19.0.0, SVG Export Plug-In . SVG Version: 6.00 Build 0)  -->
<svg version="1.1" id="Layer_1" xmlns="http://www.w3.org/2000/svg" xmlns:xlink="http://www.w3.org/1999/xlink" x="0px" y="0px"
	 viewBox="2064.7 316.2 509.7 721.3" style="enable-background:new 2064.7 316.2 509.7 721.3;" xml:space="preserve">
<style type="text/css">
	.st0{fill:none;stroke:#FFFFFF;stroke-width:0.9;stroke-miterlimit:10;}
	.st1{opacity:0.29;fill:none;stroke:#FFFFFF;stroke-width:0.9;stroke-miterlimit:10;enable-background:new    ;}
	.st2{opacity:0.29;fill:#FFFFFF;stroke:#FFFFFF;stroke-width:0.9;stroke-miterlimit:10;enable-background:new    ;}
	.st3{opacity:0.73;fill:none;stroke:#FFFFFF;stroke-width:0.9;stroke-miterlimit:10;enable-background:new    ;}
	.st4{fill:#61363D;stroke:#FFFFFF;stroke-width:0.9;stroke-miterlimit:10;}
	.st5{fill:#FFFFFF;stroke:#FFFFFF;stroke-width:0.9;stroke-miterlimit:10;}
	.st6{fill:#0C0300;stroke:#FFFFFF;stroke-width:0.9;stroke-miterlimit:10;}
	.st7{fill:#262322;stroke:#FFFFFF;stroke-width:0.9;stroke-miterlimit:10;}
	.st8{stroke:#FFFFFF;stroke-width:0.9;stroke-miterlimit:10;}
	.st9{fill:#590800;stroke:#FFFFFF;stroke-width:0.9;stroke-miterlimit:10;}
	.st10{fill:#E1784E;stroke:#FFFFFF;stroke-width:0.9;stroke-miterlimit:10;}
	.st11{opacity:0.66;fill:none;stroke:#FFFFFF;stroke-width:0.9;stroke-miterlimit:10;enable-background:new    ;}
	.st12{opacity:0.72;fill:none;stroke:#FFFFFF;stroke-width:0.9;stroke-miterlimit:10;enable-background:new    ;}
</style>
<g id="creative">
	<g>
		<g>
			<g>
				<g>
					<path class="st0" d="M2428.6,582.2c3.8-0.1,7.4,2.1,8.7,5.5l35.8,89.1"/>
					<path class="st0" d="M2319.9,703.4c-3.8,0-7.2-2.3-8.5-5.7l-5.4-14.6"/>
					<path class="st0" d="M2357.1,644.5c0.8,0.2,1.6,0.3,2.4,0.2c3.1-0.6,5.2-4,5.5-8.2c3.3,0.9,6.2,4.5,7.2,9.4
						c1.2,6.1-1.1,11.6-5.2,12.4c-4.1,0.8-8.4-3.5-9.7-9.5C2357.1,647.2,2357,645.8,2357.1,644.5z"/>
				</g>
				<polyline class="st0" points="2435.6,703.9 2316.4,703.9 2316.2,701.9 				"/>
				<polyline class="st0" points="2518.2,699 2536.6,700 2536.6,703.9 2520,703.9 				"/>
				<path class="st0" d="M2358.5,583l68.7-3.2c5.8-0.2,11.2,3.1,13.3,8.3l35.3,87.4"/>
				<path class="st0" d="M2471,676.9l-35.5-88.6c-1.1-2.8-3.9-4.6-7.1-4.6l-71.3,1.4"/>
			</g>
			<polyline class="st1" points="2305.9,627.6 2377.8,685.5 2472.8,676.3 2473.1,676.9 			"/>
			<path class="st2" d="M2319.9,703.4c-3.8,0-7.2-2.3-8.5-5.7"/>
		</g>
		<polygon class="st0" points="2466.2,984.5 2364.8,986.9 2396.5,834 2400,835.4 2374.4,980.6 2462.7,980.6 		"/>
		<path class="st0" d="M2356.1,792.4l0.3,0.5c0,0,0,0,0,0.1c0.5,0.8,1,1.8,1.5,2.8c38.9,70.1,136.3,63.1,158.1,0
			c5.3-15.4,8.3-30.4,9.3-44.4c1.3-17.5-0.5-33.2-4.7-45.9c-6.3-18.9-17.9-30.9-32.6-31.2c-22-0.5-37.5,13.2-52.4,30.6
			c-10.3,12-20.2,25.9-31.7,38c-3.2,3.4-6.5,6.6-10,9.6C2356.1,785.7,2346,773.8,2356.1,792.4z"/>
		<path class="st3" d="M2356.1,792.4l0.3,0.5c0,0,0,0,0,0.1c0.3,0.6,2.5,4.3,6.9,9c10.7,11.6,34.9,29,78.3,19.7
			c31.1-6.7,52-24.1,65.1-40c13.3-16,18.7-30.4,18.7-30.4s-14-14.6-71.2-16.4c-17.7-0.5-34.9,2.9-50.2,7.9c-3.2,3.4-6.5,6.6-10,9.6
			C2356.1,785.7,2346,773.8,2356.1,792.4z"/>
		<polygon class="st0" points="2467.6,841.1 2466.6,999.8 2487.8,984.8 2480,836.6 2476.1,838.5 2481.4,980.6 2470.2,991.6 
			2473.2,841.1 		"/>
		<g>
			<path class="st0" d="M2069.3,715.5"/>
			<path class="st0" d="M2064.7,751.1"/>
			<polyline class="st0" points="2523.3,775.5 2545.3,1011.5 2523.5,1011.7 2507.1,813.4 			"/>
			<polygon class="st0" points="2522.8,1001.5 2301,1024.1 2300,1033.3 2545.3,1010 			"/>
			<polygon class="st0" points="2320.8,726.3 2295.1,1037 2272.2,1033.3 2303.4,726.3 			"/>
			<path class="st0" d="M2416.7,727.6l-95.9-1.3l-25.7,310.7l250.2-27l-14.1-280.9l-6-0.1 M2522.9,774l13.7,234.9l-236.7,24.4
				l23.6-303.5"/>
			<line class="st0" x1="2416.7" y1="728.2" x2="2296.9" y2="727"/>
			<polyline class="st0" points="2565.3,711.1 2554.7,729.6 2531.4,729.4 2525.2,729.3 			"/>
			<path class="st0" d="M2298.9,712.3"/>
			<path class="st0" d="M2189.2,712.8"/>
			<line class="st0" x1="2431.1" y1="711.7" x2="2298.9" y2="712.3"/>
			<polyline class="st0" points="2520.6,705.4 2574,705.8 2574,711.1 2522.3,711.3 			"/>
			<line class="st0" x1="2299.7" y1="703.8" x2="2435.6" y2="704.8"/>
		</g>
		<g>
			<path class="st4" d="M2268.1,959.1v6.1c0,0-13.9,3.6-21.9,12.7c-8,9.1-11.3,13.3-20.3,15.2c-9,1.8-23.6,0-23.6,0V989l29.3-8.3
				l31.8-23.6L2268.1,959.1z"/>
			<path class="st4" d="M2183.1,1007.6l-2.6,5.4c0,0-9.5-0.1-18,6.7c-8.5,6.8-12.1,11.5-24.2,12.6c-12.1,1.1-34.6-12.3-34.6-12.3
				v-4.7l39.7,9.1L2183.1,1007.6z"/>
			<path class="st0" d="M2209.2,609.3c2.2,7.5,1.3,4,2.9,8.9c2.5,7.3,4.1,11.5,4.1,11.5s-7.5,1.1-8.2,4.5c-0.7,3.4,4.6,6.8,4.6,6.8
				s-10.6,18.6-9.8,20.2c0.8,1.7,12.9,12.4,38.7,21.7c11.7,4.2,25.8,5.2,37.8,4.7c14.5-0.6,26-3.2,26.9-4.7
				c1.6-2.7,5.9-39.2-2.4-53.4"/>
			<path class="st0" d="M2302.4,555.5c0.2-2.8,0.5-5.8,0.7-8.6c0.5-7.4,0.9-13.8,0.9-13.8s1.2-9.9,15.3-17.4
				c14.1-7.5,34.7-8.6,34.7-8.6s4.6-1.6,2.7-6.2c-1.2-3.1-4.1-4.8-11.4-9.6c-3.5-2.3-8.1-5.3-14-9.6c-11.1-8-19.7-15.4-24.6-19.9
				l-1-0.9c-1.8-1.6-3-2.8-3.5-3.3l-0.3-0.3l0,0c0,0-20.1,14.8-36.9,16.4c-16.8,1.6-20.7-10.4-20.7-10.4l-0.2,0.1
				c-0.6,0.2-2.3,0.7-4.8,1.3c-1.3,0.3-2.8,0.7-4.5,1c-2,0.4-7.6,0.8-13.9,1.2c-10.1,0.6-22,1.1-24.2,1.9c-3.5,1.3-1.3,8.2-1.3,8.2
				s7.4,10,9.6,16.1c2.2,6-17.5,30.1-8.3,69.8"/>
			<path class="st0" d="M2244.1,466.1c0,0,0.3,0.7,0.9,1.7c0,0,0,0,0,0c0.9,1.6,2.7,4.1,5.3,6.1c4.4,3.3,15.7,4.9,27.4-1.8
				c11.6-6.8,24.6-11,24.6-11l-3.4-24.3l-0.8-6.1c-0.6-4.2,2.2-15.5,2.2-15.5"/>
			<path class="st0" d="M2244.1,461v5.1c0,0,0.3,0.7,0.9,1.7c0,0,0,0,0,0c0.7,0.2,19.9,5,31.3,0c11.6-5.1,18.2-23.8,19.8-25.9
				c1.6-2,2.8-5,2.8-5v0l-0.8-6.1c-0.6-4.2,2.2-15.5,2.2-15.5"/>
			<path class="st0" d="M2289.8,363c-7-6.7-36.3-13.8-44.7-14.1c-11.9-0.4-21.7,12.4-21.7,12.4s-1,3.1-2.1,6.6c0,0,0,0,0,0
				c-1,3.2-2,6.9-2.3,8.7c-0.5,3.8-1,5.9,0.6,6.7c1.6,0.8,2.7,9.8,2,13.6c-0.7,3.8-3.1,7.7-3.1,10.4c0,2.7,5,14.6,7.4,24.5
				c2.3,9.9-0.2,23.4,2.7,26.3c2.8,2.9,18.3,4.4,23,3.2c0,0,0,0,0,0c4.7-1.2,14.5-5.5,22.9-6.6c8.4-1.1,28.5-45.5,29.4-47.4"/>
			<path class="st0" d="M2251.6,461.2c4.7-1.2,14.5-5.5,22.9-6.6c8.4-1.1,28.5-45.5,29.4-47.4c0.8-1.9-4.4-38.6-11.4-45.3
				c-7-6.7-39-12.7-47.3-13c-11.9-0.4-21.7,12.4-21.7,12.4s-1,3.1-2.1,6.6"/>
			<g>
				<path class="st5" d="M2270.4,402.7c0,0-4.5,4.9-9.9,4c-0.3-0.1-0.5-0.1-0.8-0.1c-2.8-0.5-5-1.2-6.5-1.7
					c-1.2-0.4-1.9-0.7-1.9-0.7s0.2-0.7,0.7-1.9c0.3-0.8,0.7-1.8,1.2-3l0,0c0.2-0.4,0.3-0.7,0.5-1.1c0,0,0,0,0-0.1c0,0,0-0.1,0-0.1
					c0,0,0-0.1,0-0.1c0,0,0,0,0,0c0.9-2.1,2.1-4.4,3.5-6.3c0.3-0.4,0.6-0.8,0.9-1.2c1.9-2.3,4-3.8,6.3-3.4c6.2,1.2,6,11.3,5.8,14.6
					C2270.4,402.3,2270.4,402.7,2270.4,402.7z"/>
				<path class="st6" d="M2253.6,403.7c0,0.4,0.1,0.7,0.2,1.1c0,0.2,0.1,0.4,0.2,0.5c0.2,0,0.3,0.1,0.5,0.2c2.1,0.8,5,1.8,7.3,1.6
					c0.3,0,0.5,0,0.8-0.1c0.2,0,0.4-0.1,0.5-0.1c0.8-1,1.4-2.3,1.7-3.7c0-0.1,0.1-0.3,0.1-0.4c0-0.2,0.1-0.5,0.1-0.7
					c0.5-3.9-1.2-7.5-4.1-8c-3.1-0.6-6.3,2.3-7.1,6.5C2253.5,401.7,2253.5,402.8,2253.6,403.7z"/>
				
					<ellipse transform="matrix(0.1972 -0.9804 0.9804 0.1972 1419.8783 2537.6042)" class="st5" cx="2259.4" cy="401.8" rx="4.5" ry="3.3"/>
				<path class="st0" d="M2270.4,402.7c0,0,0-0.4,0.1-1c0.1-2.8-0.1-10.5-5.8-12.4c-2-0.6-3.8,0.1-5.5,1.6c-0.4,0.3-0.7,0.7-1.1,1
					c-1.7,1.8-3.1,4-4.2,6.1c0,0,0,0,0,0c0,0,0,0.1,0,0.1c0,0,0,0.1,0,0.1c0,0,0,0,0,0.1c-0.2,0.3-0.4,0.7-0.5,1
					c-0.6,1.1-1,2.1-1.3,2.7c0,0,0,0,0,0c-0.3,0.6-0.4,1-0.4,1s0.1-0.5,0.3-1.3l0,0c0.3-1,0.7-2.4,1.2-4c0.6-1.8,1.4-3.8,2.5-5.6
					c0.4-0.6,0.7-1.2,1.2-1.8c1.9-2.7,4.5-4.7,7.6-4.3C2274.8,387.1,2270.4,402.7,2270.4,402.7z"/>
				<path class="st7" d="M2251.4,404.2c0,0,1,0.5,2.5,1.2c0.2,0,0.3,0.1,0.5,0.2c2.1,0.8,5,1.8,7.3,1.6c0.3,0,0.5,0,0.8-0.1
					c0.2,0,0.4-0.1,0.5-0.1c5.5-1.2,7.6-4.8,7.6-4.8s-2.1-0.2-5.7,0h-0.2c-0.8,0-1.6,0.1-2.5,0.2h-0.1c-1.9,0.2-4,0.5-5.8,0.8
					c-1,0.2-1.8,0.4-2.6,0.5c0,0-0.1,0-0.2,0C2252.3,404,2251.4,404.2,2251.4,404.2z"/>
			</g>
			<g>
				<path class="st5" d="M2233.8,402.4c0,0-1.7,0.4-3.7,0.7c-0.6,0.1-1.3,0.1-1.9,0.2c-0.3,0-0.5,0-0.8,0c-2.9,0.1-4.2-1.5-4.2-1.5
					s0,0,0-0.1c0-0.4,0-1.4,0.1-2.8c0,0,0,0,0,0c0.1-2.2,0.4-5.3,1.1-7.8c0.1-0.5,0.3-1,0.5-1.4l0,0c0.8-1.9,1.9-3.2,3.6-3.3
					c1.1,0,2,0.6,2.7,1.6c0.9,1.2,1.4,3,1.8,4.9c0.3,1.5,0.5,3.1,0.6,4.5c0,0,0,0,0,0.1c0.1,0.6,0.1,1.3,0.1,1.8c0,0.1,0,0.2,0,0.3
					C2233.9,401.1,2233.8,402.4,2233.8,402.4z"/>
				<path class="st8" d="M2223.5,401.9L2223.5,401.9C2223.5,402,2223.5,402,2223.5,401.9c0.2,0.4,0.6,0.8,1.1,1.2
					c0.2,0.2,0.4,0.3,0.6,0.4c0.6,0.4,1.4,0.7,2.4,0.6c0.2,0,0.5,0,0.7-0.1c0.3,0,0.5-0.1,0.8-0.2c0.9-0.2,1.8-0.5,2.6-0.7
					c0.1,0,0.2-0.1,0.3-0.1c0.1,0,0.1,0,0.2-0.1V403c0-0.1,0-0.2,0-0.3c0-0.3-0.1-0.5-0.1-0.8c-0.5-3.6-1.1-8.5-4.2-8.5
					c-2.4,0.2-4,3.2-4.3,7.5c0,0.1,0,0.1,0,0.2C2223.5,401.4,2223.5,401.7,2223.5,401.9z"/>
				<path class="st5" d="M2224.4,400.8c0,0.3,0,0.6,0,0.9c0,0.5,0.1,1,0.2,1.4c0.2,0.2,0.3,0.3,0.6,0.4c0.6,0.4,1.4,0.7,2.4,0.6
					c0.2,0,0.5,0,0.7-0.1c0.3,0,0.5-0.1,0.8-0.2c0.2-0.5,0.4-1,0.5-1.6c0-0.1,0-0.2,0-0.3c0,0,0,0,0-0.1c0.1-0.2,0.1-0.4,0.1-0.7
					c0,0,0-0.1,0-0.1c0.1-1.5-0.2-2.8-0.7-3.7c-0.4-0.7-1-1.3-1.6-1.3c-1.4-0.1-2.7,1.9-2.9,4.5
					C2224.4,400.8,2224.4,400.8,2224.4,400.8z"/>
				<path class="st0" d="M2233.7,401.6c0,0-0.1-0.5-0.2-1.4c-0.1-0.9-0.3-2-0.5-3.4c-0.6-3.3-1.6-7.4-3.3-8.6
					c-0.3-0.2-0.5-0.4-0.8-0.4c-0.2,0-0.3,0-0.5,0c-0.9,0.1-1.6,0.9-2.2,2c-0.2,0.3-0.4,0.7-0.6,1.1c-1.1,2.5-1.7,6-2.1,8.3
					c-0.2,1.4-0.3,2.4-0.3,2.4s0,0,0-0.1c0-0.4-0.1-1.6-0.1-3.3c0-2,0.1-4.6,0.6-7c0.1-0.6,0.3-1.2,0.4-1.8c0.8-2.6,2.3-4.5,4.8-4.5
					c1.2,0,2.2,0.8,2.9,2l0,0c0.5,1,0.9,2.2,1.2,3.5c0.2,1,0.4,2.1,0.5,3.2c0.2,1.9,0.2,3.8,0.2,5.3c0,0.1,0,0.2,0,0.3
					c0,0.2,0,0.3,0,0.4C2233.8,400.9,2233.7,401.6,2233.7,401.6z"/>
				<path class="st7" d="M2223.3,401.7c0,0,0,0.1,0.2,0.3v0c0,0,0,0,0,0.1c0.2,0.3,0.5,0.7,1,1.1c0.2,0.2,0.3,0.3,0.6,0.4
					c0.6,0.4,1.4,0.7,2.4,0.6c0.2,0,0.5,0,0.7-0.1c0.3,0,0.5-0.1,0.8-0.2c0.9-0.2,1.8-0.5,2.6-0.7c0.1,0,0.2-0.1,0.3-0.1
					c0.1,0,0.1,0,0.2-0.1c1-0.4,1.7-0.7,1.7-0.7s-0.7-0.2-1.7-0.5c0,0,0,0-0.1,0c0,0,0,0-0.1,0c-0.7-0.2-1.5-0.4-2.3-0.6
					c0,0-0.1,0-0.1,0c-0.1,0-0.2,0-0.3-0.1c-1.3-0.3-2.7-0.5-3.8-0.5c-0.4,0-0.7,0-1,0c0,0-0.1,0-0.1,0c0,0,0,0,0,0
					c-0.4,0-0.7,0.1-0.8,0.2c0,0,0,0,0,0C2222.9,401.2,2223.3,401.7,2223.3,401.7z"/>
			</g>
			<path class="st9" d="M2241.4,383.3c0,0-3.4,7.2-5.6,16.4c-2.2,9.2-3.6,14.2-3.6,14.2s-0.6-6,1.3-13.7
				C2235.5,392.5,2241.4,383.3,2241.4,383.3z"/>
			<path class="st9" d="M2247.9,416.7c0,0-1.4-2-3.4-1.2c-2,0.8-2.2,2.4-2.2,2.4S2246.2,416.3,2247.9,416.7z"/>
			<path class="st0" d="M2265.7,419.5c0,0-8.8,2.6-16.7,5.2c-8.6,2.8-15.7,1.7-15.7,1.7l2.8,5.3c0,0,6.1,6.4,15.4,2.5
				c9.2-3.8,15.1-13.2,15.1-13.2L2265.7,419.5z"/>
			<path class="st0" d="M2255.7,381.4c0,0-0.7-0.6-2.8-4c-2.1-3.5-2.1-3.5-2.1-3.5l3.9,3.9l-1.8-4.8l3.6,2.8l-1.4-3.7
				c0,0,6.4,0.3,13.8,3.4c7.4,3.1,13.2,7.4,13.2,7.4s-1.6,3-3.8,2.8c-2.2-0.1-9.7-3.3-13.8-3.7
				C2260.3,381.8,2255.7,381.4,2255.7,381.4z"/>
			<path class="st0" d="M2238.3,380.2v-8l-1,3.4l-1-4.3l-0.8,4.5l-0.5-4.5c0,0-8.7,2.2-12.7,5.2c-4,3-4.9,6-4.9,6s0.8,1.7,2.7,1.8
				c1.9,0.1,5.4-2,9-3C2232.7,380.2,2238.3,380.2,2238.3,380.2z"/>
			<path class="st5" d="M2263.5,421.2c0,0-7.2,2.9-15.6,5.1c-8.4,2.3-12.9,1.1-12.9,1.1s3.3,2.7,7.3,3.3c4,0.5,11.1-2.8,15.3-5.6
				C2261.8,422.3,2263.5,421.2,2263.5,421.2z"/>
			<path class="st10" d="M2247.9,409.6c0,0,2.2,3.5,1.9,5.5s-0.2,2-0.2,2s2.5-0.5,2-3.8C2251,410,2247.9,409.6,2247.9,409.6z"/>
			<path class="st0" d="M2310.3,408.1c0,0,4.6-6.5,15.4-1.3c10.8,5.1-20.3,30-26.8,30"/>
			<path class="st0" d="M2300.1,422.4c0,0,7.6-5.1,14.3-7.1s8.5-1.4,8.5-1.4s-5.2,2.1-11.4,5.6
				C2305.3,422.9,2300.1,422.4,2300.1,422.4z"/>
			<path class="st0" d="M2303.9,421.2c0,0-2.5,5.6,0,7.8c2.4,2.2,6.5,0,6.5,0s-5.7,0.5-5-3.4c0.7-3.9,2.3-4.4,2.3-4.4H2303.9z"/>
			<path class="st0" d="M2297.8,418.8l12.6-11.3c0,0,14.3-19.7,15.7-29.8c1.5-10-8.1-23.3-22.2-37.9c-8-8.3-12-12.3-15-15
				c0,0,0,0,0,0c-2.4-2.1-4.1-3.4-6.7-5.2c-6-4.2-13.2-2.7-13.2-2.7s6.9,1,10.3,4c3.4,3,2.9,4,2.9,4s-16-6-31.4-5.5
				c-15.4,0.5-21.1,4.8-21.1,4.8l10.1,0.5c0,0-15.7,5.8-21.2,14.3c-5.5,8.5-5.8,15.2-9.6,19.1c-3.1,3.1-5.8,3.2-6.7,3.1
				c1.9,0.3,11,1.6,15.1,1c4.6-0.7,4.6-0.7,4.6-0.7s-2.5,2.2-4.6,4c-2.2,1.8-5.2,2.9-5.2,2.9s8.2,0.3,18-3.2"/>
			<path class="st0" d="M2287.7,568c-1.4-0.6-2.8-1.2-4.3-1.8c-22-8.7-50.8-14.4-54.4-16.7c-4.2-2.7-12.7-3.3-17.7-3.5
				c-4.9-0.2-16.3,1.1-17.4,1.8"/>
			<path class="st0" d="M2222.5,564.2c1.4,2.9,7.4,14.5,17,29.3c10.8,16.6,36.9,35.8,41.5,37.1c4.6,1.3,9.7,5.3,16.3,2.7
				c6.6-2.6,27.9-20.8,27.9-20.8"/>
			<path class="st0" d="M2161.6,576.4c0,0,1.2,6,3.6,14.4c1.8,6.3,4.2,12.3,7.3,14.3c7.3,4.6,32.4,4.8,48.8,3.8
				c16.5-0.9,26.9-4.2,26.9-4.2s-10.1-11.9-16.2-22.9c-6.1-11-9.5-17.6-9.5-17.6s-6.4-1.2-17.2-1.6h0c-2.7-0.1-5.6-0.2-8.8-0.2
				C2179.1,562.4,2161.6,576.4,2161.6,576.4z"/>
			<path class="st0" d="M2287.7,568"/>
			<path class="st0" d="M2222.5,564.2c1.4,2.9,7.4,14.5,17,29.3c10.8,16.6,36.9,35.8,41.5,37.1c4.6,1.3,9.7,5.3,16.3,2.7
				c6.6-2.6,27.9-20.8,27.9-20.8"/>
			<path class="st10" d="M2220.8,563.5"/>
			<path class="st10" d="M2220.8,562.2"/>
			<path class="st0" d="M2232.2,607.9c0,0-11.4-18.6-16.2-30.6c-4.8-12.1-4.8-14.3-4.8-14.3l11.3,1.3c0,0,16.3,28.8,25.7,40.5
				C2248.2,604.7,2235.3,607.5,2232.2,607.9z"/>
			<path class="st0" d="M2299.4,557.9c1.3-7.7,2.6-17.2,3-25c0.8-16.3,36.7-28.5,51.5-25.8c0,0,3.8,26.7,3.2,43.5
				c-0.4,11-2.6,19.3-4.2,23.7"/>
			<path class="st0" d="M2357.1,585.4c-2.1,3-11.4,1.4-15.8,6.7c-4.4,5.3-4,13.7-7.1,17.3c-3.1,3.6-8.9,3.3-8.9,3.3
				s-7.1-22.3-15.5-29.6"/>
			<path class="st0" d="M2235,484.1c0,0,17.4,3.8,30.9-2.2c13.5-6.1,40.7-20.2,40.7-20.2l-1-0.9l-3.5-3.3l-0.3-0.3l0,0
				c0,0-20.1,14.8-36.9,16.4c-16.8,1.6-20.7-10.4-20.7-10.4l-0.2,0.1l-4.8,1.3c0,0,0,0,0,0c0.1,0.3,0.6,2.5,3,5.5
				c2.6,3.3,10.6,6.8,10.6,6.8s0,0-4.5,2.7C2243.7,482.4,2235,484.1,2235,484.1z"/>
			<path class="st0" d="M2294.6,499.9c0,0-17.6,8.6-27.6,16.5c-10.1,7.9-21.4,5.7-21.4,5.7s10.5,6.4,27.6-2.4
				C2290.3,510.9,2294.6,499.9,2294.6,499.9z"/>
			<path class="st0" d="M2251.5,506.7c0,0-8,0-19.6-9.7c-11.5-9.7-18.7-17.9-18.7-17.9s7.5,18.5,19.1,25.4
				C2244,511.4,2251.5,506.7,2251.5,506.7z"/>
			<path class="st0" d="M2357,503.5c0,0-26.7-0.3-38.5,8.6c-11.8,8.9-14.9,16-14.9,16s12-13.6,26.9-17c14.9-3.4,23.4-4.1,23.4-4.1
				S2356.4,505.8,2357,503.5z"/>
			<path class="st0" d="M2355.7,586.5c0,0-4.3-5.6-15.9-14c-11.5-8.4-11.3-9.5-11.3-9.5s16.7,4.1,27.1,13.5
				C2362.4,582.6,2355.7,586.5,2355.7,586.5z"/>
			<path class="st11" d="M2288.5,509.7c4.4,0,8.4-0.4,11.3-1.4c16.5-5.6,24.8-6.4,32.5-10c7.7-3.6,12.9-7.1,12.9-7.1l-43.4-34l0,0
				c0,0-20.1,14.8-36.9,16.4c-16.8,1.6-20.7-10.4-20.7-10.4l-0.2,0.1c-0.6,0.2-2.3,0.7-4.8,1.3c-1.3,0.3-2.8,0.7-4.5,1
				c-2,0.4-7.6,0.8-13.9,1.2c0.3,0.6,5.4,11,11.3,22.8"/>
			<path class="st0" d="M2196.7,533.3c-1-11.7,9.3-34.8,8.9-40.3c-0.4-5.5-10.3-16.3-10.3-16.3s-12.3,10.5-23,29.9
				c-10.8,19.4-13.9,37.7-13.9,37.7s-3.8,0.2-4.9,3.1c-1.1,2.9,5.3,11.4,3.1,14.9c-2.2,3.5-6.5,7.8-3.2,11.6s8.3,3.3,8.3,3.3
				s4-5.6,16.6-10c12.6-4.5,24.8-4.7,24.8-4.7"/>
			<path class="st0" d="M2195.1,470.1c0,0,2.9,2.5,7.5,10.5c4.7,8,2.3,14.5,2.3,14.5s-2.6-11.4-9.6-18.3
				C2195.4,476.8,2193.6,471.5,2195.1,470.1z"/>
			<path class="st0" d="M2225.2,932.5c1.1,3,9.1,3.9,9.1,3.9v9.3c0,0,8.2,0,15.1-2.7c6.9-2.7,7.1-6,7.1-6l-2.2-4.7
				c0,0,6.3-4.9,4.1-9.1c-2.2-4.1-11.5-4.4-11.5-4.4s5.7-9.2,2.2-30.1"/>
			<path class="st0" d="M2206.1,664.6c0,0-39.1,92.7-43.4,130c-2.5,20.9,17.2,57.5,35.4,86.1"/>
			<path class="st0" d="M2204.6,802.2l10.7-77.1c0,0-3.6-15.3-2.7-18.6c0.8-3.3,5.3-4.4,6.9-10.4c1.6-6,6.5-10.9,9.5-11
				c3-0.2,4.5,2.8,24,7.4c18.8,4.5,45-6.6,45-6.6l2.7-0.8"/>
			<path class="st0" d="M2165,975.4l-2.5,8.4c7.9,6.4,20.2,5,20.2,5l2.5-5c0,0,11.8,2.2,12.4-3.8c0.5-6.1-5.2-7.7-5.2-7.7
				s17.9-21.2,32.9-39.9c5.7-7.1,10.9-13.8,14.6-18.8c13.4-18.4,14.3-71.6,14.3-71.6s8.5-1.1,9.3-3.8c0.8-2.7-9.3-12.6-9.3-12.6
				s11.5-25.2,29.1-55.7c17.5-30.4,17.5-84.6,17.5-84.9l-0.1,0c-1.5,0.5-25.7,8-37.9,8.9c-12.6,0.9-28.5-10.4-33.7-8.9
				c-5.1,1.6-6.6,5-9,10c-2.4,4.9-4.6,6.4-7,9.9c-2.4,3.5,2.6,21.6,2.6,21.6s-4.8,30.7-9.5,63.3c-4.7,32.5-2.6,47.2-2.6,47.2
				s0,5.1-4.4,37.3c-0.3,2.1-0.6,4.2-1.1,6.5c-3.2,16.7-10,38.1-16,55.2c0,0,0,0,0,0s0,0,0,0c-5.8,16.6-10.9,29.1-10.9,29.1
				s-2.7,1.4-5.8,3.9C2162.4,971.6,2165,975.4,2165,975.4z"/>
			<path class="st12" d="M2165,975.4l-2.5,8.4c7.9,6.4,20.2,5,20.2,5l2.5-5c0,0,11.8,2.2,12.4-3.8c0.5-6.1-5.2-7.7-5.2-7.7
				s34-40.3,47.4-58.7c13.4-18.4,14.3-71.6,14.3-71.6s8.5-1.1,9.3-3.8c0.8-2.7-9.3-12.6-9.3-12.6s11.5-25.2,29.1-55.7
				c17.5-30.4,17.5-84.6,17.5-84.9l-0.1,0c-1.5,0.5-25.7,8-37.9,8.9c0,0,7.9,49.2,6.2,65.2c-1.6,16-24.1,53.3-25.8,61
				c-1.6,7.7,9.2,7.3,5.2,16.8s-9,38.6-16.7,61.6c-7.6,22.7-48.2,37-49.5,37.4c0,0,0,0,0,0s0,0,0,0c-5.8,16.6-10.9,29.1-10.9,29.1
				s-2.7,1.4-5.8,3.9C2162.4,971.6,2165,975.4,2165,975.4z"/>
			<path class="st0" d="M2163.9,984.8c0,0-21.4,11.2-32,16.7c-10.6,5.5-19.6,5.3-23.8,7.1c-4.2,1.8-4.4,6.6-4.4,6.6
				s28.5,16.5,45,10.1c16.5-6.4,15-12.6,22.1-14.6c7.1-2,11.5-1.6,12.3-3.1c0.7-1.5-0.3-13.9-1.8-18.6
				C2181.3,988.9,2169.6,989,2163.9,984.8z"/>
			<path class="st0" d="M2254.9,939.7c0,0,7.6,6.1,10.2,10.4c2.6,4.4,3.1,9,3.1,9s-12.6,4.4-19.8,12.4c-7.1,8-9.8,13.4-17.3,17.4
				c-7.4,4-28.8,0-28.8,0s1.1-8.6,5.1-10.5c4-1.8,8.8-2.4,13-6.6c4.2-4.2,15.6-18.8,15.5-22.5c0-3.7,0-3.7,0-3.7
				S2247.3,945.8,2254.9,939.7z"/>
			<path class="st0" d="M2299,574.4c5.4,4.6,18.6,17.5,26.2,38.3c0,0,4.9,0,6.9-1.7c0,0-4.2-14.4-13.9-24.5
				c-3.4-3.5-6.6-6.6-9.3-9.2"/>
			<path class="st0" d="M2300.3,558.4c0,0,4.4-8.8,12.8-6.2c8.4,2.6,15,8.2,15.2,11.9c0.2,3.7-4,3-8.6,1.1c-4.6-1.8-8.2-2.8-8.2-2.8
				s9.2,6.8,10.2,8.8c1,2.1-2.6,4.5-6.5,3.2c-3.8-1.4-3.8-1.4-3.8-1.4s1.2,3.6-2.9,3.4c-4.1-0.1-12.6-12.3-14.7-12.3
				c-2.1,0-2.1,0-2.1,0S2297.7,559,2300.3,558.4z"/>
			<path class="st0" d="M2282.6,566.5c-0.1-2.1,6.7-4.2,11.8-2.4c5.1,1.8,7.2,8.1,6.3,9.9c-0.9,1.8-4.4,2.2-6.6-1.5
				C2291.9,568.8,2282.6,566.5,2282.6,566.5z"/>
			<path class="st0" d="M2315.2,574.3c0,0-7.8-7.6-11.6-10.3c-3.8-2.6-3.8-2.6-3.8-2.6l11.5,11.5L2315.2,574.3z"/>
			<path class="st0" d="M2322.2,566.1c0,0-6.3-5.5-10.5-7.9c-4.2-2.4-10.2-1.5-10.2-1.5l-1.1,1.8c0,0,6.8,0.5,11.2,3.9L2322.2,566.1
				z"/>
		</g>
	</g>
</g>
</svg>
