<?xml version="1.0" encoding="utf-8"?>
<?xml-stylesheet type="text/css" href="svg-style.css"?>
<!-- Generator: Adobe Illustrator 19.0.0, SVG Export Plug-In . SVG Version: 6.00 Build 0)  -->
<svg version="1.1" id="creative" xmlns="http://www.w3.org/2000/svg" xmlns:xlink="http://www.w3.org/1999/xlink" x="0px" y="0px"
	 viewBox="1438.7 412.7 869.1 453.7" style="enable-background:new 1438.7 412.7 869.1 453.7;" xml:space="preserve">
<style type="text/css">
	.st0{fill:#E16736;}
	.st1{fill:#3F0800;}
	.st2{fill:#DC1697;}
	.st3{fill:#FFFFFF;}
	.st4{opacity:0.32;enable-background:new    ;}
	.st5{fill:#F47100;}
	.st6{fill:url(#SVGID_1_);}
	.st7{opacity:0.61;fill:#E90052;enable-background:new    ;}
	.st8{opacity:0.61;fill:#DC1697;enable-background:new    ;}
	.st9{opacity:0.61;fill:#0056AC;enable-background:new    ;}
	.st10{fill:#E8953A;}
	.st11{fill:#BFBEBA;}
	.st12{fill:#590800;}
	.st13{opacity:0.5;fill:#590800;enable-background:new    ;}
	.st14{fill:url(#SVGID_2_);}
	.st15{fill:#772A2C;}
	.st16{fill:none;stroke:#FFFFFF;stroke-width:0.8;stroke-miterlimit:10;}
	.st17{opacity:0.29;fill:none;stroke:#FFFFFF;stroke-width:0.8;stroke-miterlimit:10;enable-background:new    ;}
	.st18{opacity:0.29;fill:#FFFFFF;stroke:#FFFFFF;stroke-width:0.8;stroke-miterlimit:10;enable-background:new    ;}
	.st19{opacity:0.73;fill:none;stroke:#FFFFFF;stroke-width:0.8;stroke-miterlimit:10;enable-background:new    ;}
	.st20{fill:none;stroke:#F5D909;stroke-width:0.8;stroke-miterlimit:10;}
	.st21{opacity:0.38;fill:none;stroke:#F5D909;stroke-width:0.8;stroke-miterlimit:10;enable-background:new    ;}
	.st22{fill:#FFFFFF;stroke:#FFFFFF;stroke-width:0.8;stroke-miterlimit:10;}
	.st23{fill:#F5D909;stroke:#000000;stroke-width:0.8;stroke-miterlimit:10;}
	.st24{opacity:0.4;}
	.st25{fill:none;stroke:#000000;stroke-width:0.8;stroke-miterlimit:10;}
	.st26{opacity:0.73;fill:none;stroke:#000000;stroke-width:0.8;stroke-miterlimit:10;enable-background:new    ;}
	.st27{fill:#61363D;stroke:#FFFFFF;stroke-width:0.8;stroke-miterlimit:10;}
	.st28{fill:#0C0300;stroke:#FFFFFF;stroke-width:0.8;stroke-miterlimit:10;}
	.st29{fill:#262322;stroke:#FFFFFF;stroke-width:0.8;stroke-miterlimit:10;}
	.st30{stroke:#FFFFFF;stroke-width:0.8;stroke-miterlimit:10;}
	.st31{fill:#590800;stroke:#FFFFFF;stroke-width:0.8;stroke-miterlimit:10;}
	.st32{fill:#E1784E;stroke:#FFFFFF;stroke-width:0.8;stroke-miterlimit:10;}
	.st33{opacity:0.66;fill:none;stroke:#FFFFFF;stroke-width:0.8;stroke-miterlimit:10;enable-background:new    ;}
	.st34{opacity:0.72;fill:none;stroke:#FFFFFF;stroke-width:0.8;stroke-miterlimit:10;enable-background:new    ;}
</style>
<g>
	<path class="st0" d="M2014.7,654.4c0,0-7.2-4.5-8.7-4.7c-1.5-0.3-8.7,5.3-8.7,5.3L2014.7,654.4z"/>
	<polygon class="st1" points="2123.7,853.1 2087.6,839.8 2091.7,836.4 2123.7,851.5 	"/>
	<polygon class="st1" points="2100,755.1 2087.6,839.8 2091.2,839.8 2104.2,755.1 	"/>
	<path class="st0" d="M2062,581.1c0,0-1.8,16.2,0.5,23.5s11.9,8.3,11.9,8.3v-23.1L2062,581.1z"/>
	<path class="st2" d="M2122.3,685c-3.5,1.7-7,1.9-9.9,1.6c-3.8-0.4-6.5-1.6-6.5-1.6l2.4-37.5l1.9-30.4c0,0,2,0.2,4.5,0.6
		c0,0,0,0,0.1,0c2.5,0.5,5.5,1.2,7.6,2.3c1.7,0.9,3.3,10.7,4.1,22.4C2127.7,660.2,2127.2,682.6,2122.3,685z"/>
	<path class="st3" d="M2105.9,797.1c0,0,0,0-1.9,1c-1.9,1-6,5.2-6,5.2l-1.9-3.7c0,0-3.4,1.4-4.2-0.5s2.2-4.9,2.2-4.9l-19.2-26.3
		l-14.5-19.8c0,0,31.9-3.6,34.3,3.9c1.1,3.4,2.4,11.5,3.5,19.4c1.4,9.5,2.5,18.5,2.5,18.5s3.8,0.3,4.5,1.7s-2.2,3.7-2.2,3.7
		L2105.9,797.1z"/>
	<path class="st3" d="M2079.9,737c0,0-12.9,13.3-19.5,11.1c-6.6-2.3-20.6-11.3-20.6-11.3s0,0,0,0c0.2,0.9,4.3,19.5,1.8,24.5
		c-2.6,5.1-21,28.8-21.4,30.5c-0.3,1.7,3.5,4.5,2.6,5.9c-0.9,1.4-2.9,1.9-2.9,1.9l-1,5.7c0,0-0.7,1-2.9,1.7c-2.3,0.7-6.7,0-6.7,0
		l-0.5-9.5c0,0-3.7-0.8-3.1-2.7c0.7-1.9,5.8-2.9,5.8-2.9s4.1-78,12.2-81.9s25.7-2,25.7-2c1,0.1,2.2,0.3,3.4,0.6c0,0,0,0,0,0
		c4.7,1.2,10,3.7,10,3.7L2079.9,737z"/>
	<path d="M2079.9,737c0,0-12.9,13.3-19.5,11.1c-6.6-2.3-20.6-11.3-20.6-11.3s-4.6-2.2-8.4-2.6c-3.7-0.4-6.8-2.6-6.8-2.6s3.5,0,6.8,0
		s6.1-0.6,6.1-0.6s-14.4-7.8-12.7-8.5c1.7-0.7,17.3,8,22.7,4c5.4-4,5.4-17.6,5.4-17.9c4.7,1.2,10,3.7,10,3.7L2079.9,737z"/>
	<path class="st4" d="M2098.3,771.4c0,0-0.4-2.4-9.2-3.9c-3.8-0.6-9.2-0.3-14.1,0.4l-14.5-19.8c0,0,31.9-3.6,34.3,3.9
		C2095.8,755.5,2097.1,763.5,2098.3,771.4z"/>
	<path class="st5" d="M2022.6,796c0,0-0.4-0.7-5.6,0c-5.2,0.7-6.8,1.2-6.8,1.2l9.7,2.3C2020,799.5,2024.1,798.1,2022.6,796z"/>
	<path class="st2" d="M2118.5,734.6c-3.2,1.9-8.4,3.8-14.2,5.4c0,0,0,0-0.1,0c-4.8,1.4-10.1,2.5-15,3.2c-2.1,0.3-4.1,0.5-6,0.7
		c-11.8,0.9-20.6,7-26.2,11.9c-5.6,4.9-10.5,14.8-12.7,13.2c-0.6-0.4-0.9-1.4-1-2.7c-0.2-3.3-4.6-5.4-4.5-10.5
		c0.2-7.1-1.7-20-1.9-23.9c-0.4-8.4,11.5-24.6,11.5-24.6s1.5-1.5,3.2-1.6c1.4-0.1,2.8,0.9,8,0.4c0.8-0.1,1.7-0.2,2.7-0.4
		c7.5-1.2,10-3.8,10-3.8s-3.6-2.8-2.9-4.7c0.7-1.9,5.5-1.7,5.5-1.7s-0.4-4.6-2.6-8.8l-0.8-1.6l-0.4-0.8l-0.8-1.6l-0.4-0.8l-0.7-1.4
		l-0.6-1.2c-0.1-0.1-0.1-0.3-0.2-0.4v0c-0.4-0.9-0.7-1.4-0.7-1.4s5-20.2,6.4-34.9c0.5-5.3,0.6-9.8-0.2-12.5
		c-2.6-9.3-9.5-12-10.6-12.4c-0.1,0-0.1,0-0.1,0s-3.4-1.8-0.9-3.6c2.5-1.8,12.7,2.7,20.7,3.1c6.4,0.3,23.3-2,31.9,0.6c0,0,0,0,0.1,0
		c2.3,0.7,4,1.7,4.7,3.2c0.8,1.6,0.1,12.8-1.2,24.8c-1.4,13.9-3.6,28.7-4.9,31c-1,1.8-1.3,5.6-1.1,9.8c0.4,5.9,1.9,12.5,4.6,15.4
		C2121.6,706.9,2125.5,730.5,2118.5,734.6z"/>
	
		<linearGradient id="SVGID_1_" gradientUnits="userSpaceOnUse" x1="2001.5172" y1="127.1313" x2="2006.8754" y2="142.5406" gradientTransform="matrix(1 0 0 -1 0 794)">
		<stop  offset="0" style="stop-color:#FDC38B"/>
		<stop  offset="1" style="stop-color:#FDA37D"/>
	</linearGradient>
	<path class="st6" d="M2018.9,660.7c0,0-1.8-4.2-3-5.5c-1.2-1.4-9.5-3.9-11.4-4.1c-1.8-0.2-3.3,3.2-3.3,3.2s-4.7,0.5-6.8,2
		c-1.1,0.9-2.4,2.6-2.4,2.6s-4.4,1.4-4.6,1.8c-0.2,0.4,1.6,2.5,5,2.5c3.4,0,6.7-0.9,7.8-0.8c1.1,0.1,4,2.9,7.3,3.4
		c3.3,0.5,10.2,1.2,10.2,1.2S2019.7,662.4,2018.9,660.7z"/>
	<path class="st0" d="M1992.6,657.8c0,0,4-1.1,7.2-1.2c3.2-0.1,3.8,0,3.8,0l-11.7,2.3L1992.6,657.8z"/>
	<path class="st7" d="M2089.2,691.4c0,0-9.3,4.7-9.8,8.3c-0.5,3.6-4.1,7-9.7,7.7c-5.3,0.7-9.8-1.1-10.2-1.3c0.8-0.1,1.7-0.2,2.7-0.4
		c7.5-1.2,10-3.8,10-3.8s-3.6-2.8-2.9-4.7c0.7-1.9,5.5-1.7,5.5-1.7s-0.4-4.6-2.6-8.8l-0.8-1.6l-0.4-0.8l-0.8-1.6l-0.4-0.8l-0.7-1.4
		l-0.6-1.2l-0.2-0.4v0l3.8-11.8c0,0,2.6,12.2,5.9,17C2081.2,688.8,2089.2,691.4,2089.2,691.4z"/>
	<path class="st2" d="M2077.5,642.3c-1.2,9.8-5,24.3-9.3,36.6c-4.4,12.4-9.2,22.5-12.2,23.1c-6.9,1.2-30.5-6-32.3-7.1
		c-1.8-1.1-9.4-10.3-7-22.7c0.7-3.9,1.5-6.8,2.1-9l0,0c1.4-4.8,2.3-6.1,2.3-6.1s4.4,3.3,8.5,6.9c3.9,3.5,13.8,9,14.7,9.5
		c-0.4-0.3-2.3-1.7-1-2.5c0.7-0.4,1.7,0,2.6,0.6c1.2,0.7,2.3,1.7,2.5,1.9l0,0c0,0,2-8.1,5.8-26.3c3.7-18.1,8.9-29.5,8.9-29.5
		s0.1,0,0.1,0c1.5,0.4,13.8,3.8,14.7,17.9C2077.9,637.3,2077.8,639.6,2077.5,642.3z"/>
	<path class="st7" d="M2062,619.8c0,0,10.7,3,13.6,14c2.9,11,2,20.9,2,20.9s5.9-17.5-0.9-27.5c-6.8-10-13.8-9.6-13.8-9.6L2062,619.8
		z"/>
	<path class="st8" d="M2126.4,642.4c-1.2,0.4-2.6,1-4.1,1.8c-1.1,0.6-2.5,1.1-4,1.6c-2.8,0.8-6.3,1.5-10,1.7
		c-6.2,0.4-13.1-0.4-19.1-3.3c-3.2-1.5-7.4-2-11.7-1.9c-1.2,0-2.4,0.1-3.6,0.2c-10.1,1-19.8,4.5-19.8,4.5
		c3.7-18.1,8.9-29.5,8.9-29.5s-3.4-1.8-0.9-3.6c2.5-1.8,12.7,2.7,20.7,3.1c6.4,0.3,23.3-2,31.9,0.6c0,0,0,0,0.1,0
		c2.5,0.5,5.5,1.2,7.6,2.3C2124,620.9,2125.6,630.7,2126.4,642.4z"/>
	<path class="st7" d="M2048.3,684c0,0-8.5-8.6-17.3-12.4c-8.8-3.8-12.4-8.6-12.4-8.6l0,0c1.4-4.8,2.3-6.1,2.3-6.1s4.4,3.3,8.5,6.9
		c3.9,3.5,13.8,9,14.7,9.5c-0.4-0.3-2.3-1.7-1-2.5c0.7-0.4,1.7,0,2.6,0.6l2.5,1.9l0,0c0,0-2.1-0.6-2.4,0.9
		C2045.7,675.6,2048.3,684,2048.3,684z"/>
	<path class="st9" d="M2104.2,740c-4.8,1.4-10.1,2.5-15,3.2c-2.1,0.3-4.1,0.5-6,0.7c-11.8,0.9-20.6,7-26.2,11.9
		c-5.6,4.9-10.5,14.8-12.7,13.2c-0.6-0.4-0.9-1.4-1-2.7c2-3.3,4.7-7.4,7.6-10.4c5.8-6.1-11.3-7.5-11.4-9.5c-0.2-1.9,17-9.5,16.4-10
		c0.5,0.1,4.7,1.2,18.5,3.5C2088.5,742.5,2103,740.2,2104.2,740z"/>
	<path class="st10" d="M2110.6,686.1c-0.2-0.1-1.6-1-3.6-4.7c-2.2-4-3.2-12.4-3.2-12.4s0,0,0,5c0,4.8,1.9,10.7,2,11.1
		c-0.4-0.4-7.2-7.3-5.7-17.9c1.5-10.9,3.6-21.2,1.4-30.9c-2.2-9.7-13.4-19.1-18.8-19.1c-5.4,0.1-11.3-2.1-11.8-3.5
		c-0.5-1.4-13.9-35.3-13.9-35.3s-4.6,6.4-3.1,19.8c1.5,13,3.8,18.7,3.9,19c-0.2-0.3-3.2-4.7-5.6-12.2c-2-6.1-5.6-29.9-1.2-45.9
		c0,0,0,0,0,0c1.1-4,2.7-7.5,5-10.2c11.3-12.9,18.4-14.3,26-16.1c2.9-0.7,23.9-2.6,30.7,7.5c5.8,8.7,9.6,21.8,3.8,45.2
		c-1.9,7.8-1.2,19.3,1.6,24.4c0.8,1.4,1.1,2.7,1.3,4l0,0.1c0.5,3.4-0.3,6.9,0.8,12.8c1.6,8.2-8.4,45.1-10.3,49
		C2108,679.5,2110.5,685.7,2110.6,686.1z"/>
	<path class="st11" d="M2018.9,805.2c0,0,6.3,8.7,6.4,11.4c0.1,2.7-2.3,32.7-2.3,32.7h-3.1l-5.5-19.2c0,0-6.1,10.7-8,15.4
		s-4.3,4.5-7,4.5s-8.6-2-7.6-4.2c1-2.2,7-4.6,7-4.6s3.5-12,6.9-21c3.4-9.1,4.5-13,4.5-13S2014.6,808.5,2018.9,805.2z"/>
	<path class="st1" d="M2014.8,831.5c0,0,1.1-9.2,4.2-12.4c3.1-3.2,3.1-3.2,3.1-3.2s-3.5,1.6-6.5,7.8c-3.1,6.3-4.6,12.7-4.6,12.7
		L2014.8,831.5z"/>
	<path class="st11" d="M2104,798.2c0,0,8.1,0.9,10.2,2.6c2,1.7,12.8,31.2,12.8,31.2l-4.6,1.6l-11.5-15.9c0,0,4,16,2.3,19.5
		c-1.8,3.4-12.2,3.4-12.5,1.3c-0.2-2.2,3.6-4.9,3.6-4.9s-4.2-19.8-4.8-25.3c-0.6-5.5-0.6-5.5-0.6-5.5S2102.1,799.2,2104,798.2z"/>
	<path class="st1" d="M2112.1,819.5c0,0-2-6.6-0.8-11.8c1.1-5.3,2.6-6.5,2.6-6.5s-3.3,1.7-4.5,6.5c-1.1,4.8,1.4,10,1.4,10
		L2112.1,819.5z"/>
	<path class="st12" d="M2142.1,741.5c-0.8,1.3-1.7,2.4-2.7,3.4c-19.1,18.9-95.3,7.2-96.1-1c-0.7-6.2,15.3-1.8,39.9-25.5
		c3.8-3.7,7-7.2,9.8-10.4c15-17.6,16.8-28.3,34-32.1C2149.4,670.8,2154.4,722.2,2142.1,741.5z"/>
	<path class="st13" d="M2110.6,686.1c-0.2-0.1-1.6-1-3.6-4.7c-2.2-4-3.2-12.4-3.2-12.4s0,0,0,5c0,4.8,1.9,10.7,2,11.1
		c-0.4-0.4-7.2-7.3-5.7-17.9c1.5-10.9,3.6-21.2,1.4-30.9c-2.2-9.7-13.4-19.1-18.8-19.1c-5.4,0.1-11.3-2.1-11.8-3.5
		c-0.5-1.4-13.9-35.3-13.9-35.3s-4.6,6.4-3.1,19.8c1.5,13,3.8,18.7,3.9,19c-0.2-0.3-3.2-4.7-5.6-12.2c-2-6.1-5.6-29.9-1.2-45.9
		c0,0,0,0,0,0s5.1,7,12.7,13.8c7.7,6.8,11.1,18.3,14,27.1c2.9,8.6,17.8,11.8,18.8,12c-0.6-0.2-9.2-3.4-11.9-9.6
		c-2.8-6.4-3.5-11.4-3.5-11.4s5.4,10.2,15.4,15.8c10,5.6,22.7,7.3,22.7,7.3l0,0.1c0.5,3.4-0.3,6.9,0.8,12.8
		c1.6,8.2-8.4,45.1-10.3,49C2108,679.5,2110.5,685.7,2110.6,686.1z"/>
	<path class="st0" d="M2001.2,654.3c0,0,3.6-0.1,4.9,0c1.3,0.1,1.3,0.1,1.3,0.1s-4.8-2.4-5.2-1.8
		C2001.8,653.1,2001.2,654.3,2001.2,654.3z"/>
	
		<linearGradient id="SVGID_2_" gradientUnits="userSpaceOnUse" x1="2043.223" y1="62.5084" x2="2142.0901" y2="62.5084" gradientTransform="matrix(1 0 0 -1 0 794)">
		<stop  offset="0" style="stop-color:#6F160D"/>
		<stop  offset="1" style="stop-color:#A43113"/>
	</linearGradient>
	<path class="st14" d="M2142.1,741.5c-0.8,1.3-1.7,2.4-2.7,3.4c-19.1,18.9-95.3,7.2-96.1-1c-0.7-6.2,15.3-1.8,39.9-25.5
		c3.8-3.7,7-7.2,9.8-10.4c2.8,6.4,7.7,14.8,16.1,23.6C2120,743.1,2133.4,743.1,2142.1,741.5z"/>
	<polygon class="st15" points="2064.5,741 2033.5,856.3 2123.7,853.1 2123.7,849.6 2127,751.6 2123.7,752.5 2119,850.7 2039.4,850 
		2067.7,741 	"/>
	<polygon class="st1" points="2067.2,743 2070.7,744.1 2070.7,746.4 2066.4,746.4 	"/>
</g>
<g>
	<g>
		<g>
			<g>
				<path class="st16" d="M1529.2,577.6c-2.4-0.1-4.6,1.3-5.4,3.4l-22.1,55.2"/>
				<path class="st16" d="M1596.5,652.6c2.4,0,4.5-1.4,5.3-3.5l3.4-9.1"/>
				<path class="st16" d="M1573.5,616.1c-0.5,0.1-1,0.2-1.5,0.1c-1.9-0.4-3.2-2.5-3.4-5.1c-2,0.5-3.9,2.8-4.5,5.8
					c-0.8,3.8,0.7,7.2,3.2,7.7c2.5,0.5,5.2-2.2,6-5.9C1573.5,617.8,1573.5,616.9,1573.5,616.1z"/>
			</g>
			<polyline class="st16" points="1524.8,652.9 1598.7,652.9 1598.8,651.6 			"/>
			<polyline class="st16" points="1473.7,649.9 1462.3,650.5 1462.3,652.9 1472.6,652.9 			"/>
			<path class="st16" d="M1572.6,578l-42.5-2c-3.6-0.1-6.9,1.9-8.2,5.1l-21.8,54.1"/>
			<path class="st16" d="M1502.9,636.2l22-54.9c0.7-1.7,2.4-2.8,4.4-2.8l44.2,0.9"/>
		</g>
		<polyline class="st17" points="1605.1,605.7 1560.6,641.5 1501.8,635.8 1501.6,636.2 		"/>
		<path class="st18" d="M1596.5,652.6c2.4,0,4.5-1.4,5.3-3.5"/>
	</g>
	<polygon class="st16" points="1505.9,826.7 1568.7,828.1 1549.1,733.4 1546.9,734.3 1562.7,824.3 1508,824.3 	"/>
	<path class="st16" d="M1574.1,707.7l-0.2,0.3c0,0,0,0,0,0.1c-0.3,0.5-0.6,1.1-0.9,1.7c-24.1,43.4-84.4,39.1-97.9,0
		c-3.3-9.5-5.1-18.8-5.8-27.5c-0.8-10.8,0.3-20.6,2.9-28.4c3.9-11.7,11.1-19.1,20.2-19.3c13.6-0.3,23.2,8.2,32.4,18.9
		c6.4,7.5,12.5,16,19.6,23.6c2,2.1,4,4.1,6.2,6C1574.1,703.6,1580.4,696.2,1574.1,707.7z"/>
	<path class="st19" d="M1574.1,707.7l-0.2,0.3c0,0,0,0,0,0.1c-0.2,0.4-1.6,2.7-4.3,5.6c-6.7,7.2-21.6,18-48.5,12.2
		c-19.3-4.1-32.2-14.9-40.3-24.7c-8.2-9.9-11.6-18.8-11.6-18.8s8.7-9,44.1-10.1c11-0.3,21.6,1.8,31.1,4.9c2,2.1,4,4.1,6.2,6
		C1574.1,703.6,1580.4,696.2,1574.1,707.7z"/>
	<polygon class="st16" points="1505.1,737.9 1505.7,836.1 1492.5,826.9 1497.4,735.1 1499.8,736.2 1496.5,824.3 1503.4,831.1 
		1501.6,737.9 	"/>
	<g>
		<path class="st20" d="M1752.6,620.7l3.1-20.2l-3.8,9.5l1-15.8l-2.2,10.8l0.3-8.7l-5.2,13.5l1.1-9.9l-5.1,12.7l-0.1-19.6l-3,13.3
			l-1.7-12l-2.1,17l-2.9-21.7l-1,17.8l-5.7-15.6l2.8,24.8l-6.7-14.8l3.3,18.2c0,0,6.6,1.2,14,1.4
			C1745.9,621.7,1752.6,620.7,1752.6,620.7z"/>
		<polygon class="st20" points="1726.7,620.3 1720.7,590.1 1729.9,621.2 		"/>
		<polygon class="st20" points="1732,621.2 1735.4,594.8 1734.4,621.5 		"/>
		<polygon class="st20" points="1725.8,620.5 1720,604.5 1724.3,620.4 		"/>
		<polygon class="st20" points="1737.3,621.6 1746.8,595.4 1741.1,621.8 		"/>
		<polygon class="st20" points="1745.3,621.4 1755.2,596.2 1750.4,621.1 		"/>
		<polygon class="st20" points="1751.2,620.9 1755.3,604.1 1753,620.9 		"/>
		<polygon class="st20" points="1742.1,621.6 1749.6,594.9 1745.3,621.6 		"/>
		<path class="st20" d="M1754.5,624.1l-6.7,28.3c0,0-7.9,1.1-15.6,0.3l-0.1,0c-1.3-0.1-2.7-0.3-4-0.6l0,0c-0.9-0.2-1.7-0.4-2.6-0.7
			l-3.4-31.6l25.9,0.4c0,0,0,0,0,0l5.1,0.1"/>
		<path class="st20" d="M1747.9,620.1c-0.4,0.2-8.1,3.7-12.3,11c-4.3,7.5-3.5,21.5-3.5,21.5l-0.1,0l-4-0.6l0,0
			c-0.9-0.2-1.7-0.4-2.6-0.7l-3.4-31.6L1747.9,620.1z"/>
	</g>
	<g>
		<polygon class="st16" points="1682.1,651.9 1687,650.8 1697.7,650.7 1702.5,652.2 		"/>
		<path class="st16" d="M1718.4,633.1c-2-2.8-6.4-2.2-9.2-1.4c0-1.2-0.1-2-0.1-2l-33.9,0.4c0,0-1.6,21.7,17.2,21.4
			c5.9-0.1,9.8-2.3,12.3-5.2c1.9-0.3,4.8-0.8,7.6-1.7C1717.2,642.9,1722.3,638.6,1718.4,633.1z M1711.9,642.9
			c-2.2,0.7-4.5,1.1-5.8,1.3c2.1-3.5,2.8-7.5,3-10.5c1.9-0.6,5.7-1.3,7.3,0.9C1719.2,638.6,1715.5,641.8,1711.9,642.9z"/>
		<path class="st16" d="M1702.8,629.7l6.4-0.1c0,0,2.2,21.6-16.7,21.8c-5.3,0.1-9-1.6-11.6-4c0,0,7.8-0.2,15.4-5.7
			C1704,636.3,1702.8,629.7,1702.8,629.7z"/>
	</g>
	<g>
		<g>
			<polyline class="st20" points="1972.6,645 1965.8,603.7 2002.9,572.9 2010.9,571.5 2016.4,578.1 2007.1,579.4 2001.2,578.1 
				1970.6,605 1976.2,644.5 			"/>
			<polygon class="st20" points="2016.4,578.1 2039.8,605.2 1997.4,608.3 2007.1,579.4 			"/>
			<path class="st20" d="M2005.7,583.5c0,0,7.4,1.8,15.3,6.6c7.9,4.8,14.8,15.4,14.8,15.4l3.9-0.3l-23.4-27.1l-9.4,1.3L2005.7,583.5
				z"/>
		</g>
		<g>
			<polyline class="st20" points="2002.7,638.8 2032.4,650.7 2032.6,662.1 2027.1,662.1 			"/>
			<line class="st20" x1="2000.3" y1="641.2" x2="1972" y2="647.5"/>
			<path class="st20" d="M2006.5,662.1"/>
			<polyline class="st20" points="1971.6,645.1 2002.7,638.8 2004.4,649.6 			"/>
			<polyline class="st20" points="2012.4,653.1 2010.5,644.2 2006.7,642.7 2008.6,650.5 			"/>
			<line class="st20" x1="2002.1" y1="650.9" x2="2000.3" y2="641.2"/>
		</g>
		<polygon class="st21" points="2000,605.5 2007.6,586.6 2012.9,587.9 2019.6,604.4 		"/>
	</g>
	<g>
		<polyline class="st16" points="1751.7,660.1 1736.1,825.7 1755.7,826.7 1762.1,730.5 		"/>
		<polyline class="st16" points="1879.6,664.4 1888.7,664.4 1911.9,844.2 1902.7,844.4 		"/>
		<path class="st16" d="M1751.7,659.2l-15.5,166.5l42.1,5 M1895,840.9l-15.4-176.5l-62-2.1 M1819.5,835.6l27.8,3.3 M1800.8,833.4
			l4.8,0.5 M1780.7,826.5l-40.1-4.2l13.9-140.2 M1876.1,675.1l15.1,162.8"/>
		<polyline class="st16" points="1780.7,826.5 1740.7,822.3 1756.3,818.3 1778.8,820.5 		"/>
		<line class="st16" x1="1805.7" y1="829.1" x2="1797.3" y2="828.2"/>
		<line class="st16" x1="1847.7" y1="833.4" x2="1820" y2="830.6"/>
		<polyline class="st16" points="1868.2,829.6 1890.7,831.5 1891.3,838 1879.7,836.8 		"/>
		<line class="st16" x1="1820.7" y1="824.6" x2="1845.2" y2="827"/>
		<line class="st16" x1="1795.5" y1="822.1" x2="1806.2" y2="823.2"/>
		<polyline class="st16" points="1470.6,697.2 1456.9,843.4 1470.4,843.5 1480.6,720.7 		"/>
		<polygon class="st16" points="1470.9,837.2 1608.2,851.2 1608.8,856.8 1456.9,842.5 		"/>
		<polygon class="st16" points="1595.9,666.8 1611.9,859.2 1626.1,856.9 1606.7,666.8 		"/>
		<path class="st16" d="M1469.3,668.5l-3.7,0l-8.7,173.9l154.9,16.7l-15.9-192.4l-59.4,0.8 M1594.2,668.9l14.6,187.9l-146.6-15.1
			l8.5-145.4"/>
		<line class="st16" x1="1536.6" y1="668" x2="1610.8" y2="667.2"/>
		<polyline class="st16" points="1444.5,657.3 1451.1,668.8 1465.6,668.7 1469.3,668.6 		"/>
		<path class="st16" d="M1609.5,658.1"/>
		<path class="st16" d="M1677.4,658.4"/>
		<path class="st16" d="M1908.1,659.4"/>
		<line class="st16" x1="1680.8" y1="666.4" x2="1751.6" y2="665.7"/>
		<line class="st16" x1="1749.3" y1="651.9" x2="1676.4" y2="652.4"/>
		<line class="st16" x1="1832.6" y1="651.3" x2="1813.3" y2="651.4"/>
		<line class="st16" x1="1816.3" y1="659" x2="1834.5" y2="659.4"/>
		<line class="st16" x1="1678.3" y1="658.4" x2="1751" y2="658.7"/>
		<line class="st16" x1="1527.7" y1="657.7" x2="1609.5" y2="658.1"/>
		<polyline class="st16" points="1472.2,653.8 1439.1,654.1 1439.1,657.3 1471.2,657.5 		"/>
		<line class="st16" x1="1609" y1="652.9" x2="1524.8" y2="653.4"/>
	</g>
	<g>
		<path class="st16" d="M2246.7,757.5c3.4,5.4,8.3,15.6,12.5,22"/>
		<path class="st16" d="M2271.3,798c3.1,4.6,5,7.6,5,7.6s7.1-0.2,8.7,0c1.5,0.2,1-2,1-2s-3.2-8.5-6.5-18.3"/>
		<path class="st16" d="M2284,773.2c-0.5,6.9-8.8,20.3-17.1,32.1c-0.1,0.1-0.1,0.2-0.2,0.2c0,0,0,0-0.1,0.1
			c-8.4,11.8-16.6,21.9-16.6,21.9s-1.8,0.2-3.1,0c-1.2-0.2,0-10.5,0-10.5s7-11.9,11.1-30.6c2.5-11.6,4.5-24.9,5.6-33.3
			c0.7-5.1,1-8.4,1-8.4c9.4-0.9,22.6-10.2,22.6-10.2s-3.2,4.6-3.3,8.7C2283.9,747.2,2284.9,759.2,2284,773.2z"/>
		<path class="st16" d="M2248.1,815.5c-4.5-2.9-6.7,5.3-11.2,8.8c-4.5,3.6-13.9,8.3-19.1,8.7c-5.2,0.3-5.5,0.5-7.6,2.5
			c-2,2-2.2,4.6-2.2,4.6s8,4.4,20.8,3.7c12.8-0.7,24.7-3.7,24.7-3.7s-0.8-9.5-1-12.4c-0.2-2.9-0.2-2.9-0.2-2.9"/>
		<path class="st16" d="M2287.1,803.9c-2.4,0.9-5.1,1.1-6,1.4c-0.9,0.3-6-1.5-6-1.5s-2.4,2.7-0.6,4.7c1.9,2,0.9,4.7,1.3,6.4
			c0.5,1.8-5.2,17.5-7.8,18.1c-2.6,0.6-5.8,0.1-6.7,1.8c-0.9,1.7,1.4,4.8,1.4,4.8s13.9,1.5,19-0.9c5.1-2.4,5.3-9.7,8.5-13.9
			c3.2-4.2,6.1-9.4,5.8-10.5C2295.7,813.1,2287.1,803.9,2287.1,803.9z"/>
		<path class="st16" d="M2207.9,838.7c0,0,10.6,4.5,22.8,3.6c12.1-0.9,22.8-3.6,22.8-3.6v3c0,0-13.6,3.7-25.5,3.4
			c-11.9-0.3-20.8-3.2-20.8-3.2L2207.9,838.7z"/>
		<path class="st16" d="M2261.6,837.4c0,0,13.5,3.9,18.3,0c4.8-3.9,6.2-11.1,9.3-15.8c3.1-4.8,6.1-8.5,6.1-8.5l1.9,1.8
			c0,0-5,8.7-7.8,14.5c-2.8,5.8-4.1,10.6-10.7,11.5c-6.6,0.9-15.8-1.4-15.8-1.4L2261.6,837.4z"/>
		<polygon class="st16" points="2234.2,830.5 2244,836.8 2245,834.5 2235.3,829.4 		"/>
		<polygon class="st16" points="2237.8,828.6 2245,832.7 2246.6,831.1 2239.5,827.5 		"/>
		<polygon class="st16" points="2276.7,824.8 2285.3,822.2 2285.3,823.5 2276.7,826 		"/>
		<polygon class="st16" points="2276.7,820.4 2286.2,817.5 2285.3,820.4 2276.7,822.2 		"/>
		<path class="st16" d="M2194.9,589.1c-7.5-18.4-10.5,69.5-4.3,31.3c0,0-1.8,1.3-4.2,3"/>
		<path class="st16" d="M2174.1,632.8c-1.9,1.7-4.5,4.2-7.4,7c-6.2,6.1-13.1,13.6-14.2,16.3c-1.8,4.3-5.1,4.1-5.1,4.1
			s-4.3-1.9-6.8-6.9c-2.5-5-6.8-10.4-6.8-10.4s-0.5-3.8,1.6-4.8c2.2-1,6.5,1,6.5,1s6.1-6.8,13.9-15.4c4.5-4.9,9.5-10.4,14.2-15.4"/>
		<path class="st16" d="M2126.1,644.9c3.1-1,6-1.8,7.6-2c0,0,2.3,0.5,8.1,8.2s6.3,8.8,6.3,8.8s-11.3,0.2-21.6,0.2"/>
		<path class="st16" d="M2257.1,648"/>
		<path class="st16" d="M2253.5,745c-3.3,10.9-4.9,13.7-6.8,12.5c-6.3-3.7-18.6-21.4-22.2-35.3c-2.5-9.6-0.9-30.7-0.9-43.9
			c0-5.7-0.3-10-1.4-11.2c-3.6-3.9-16.3-20.4-16.3-20.4"/>
		<path class="st16" d="M2295,728.6c0,0-19.5,17.7-35.8,16.3c-3.6-0.3-6.9-0.8-9.7-1.3c-9.8-1.8-14.7-4.6-14.7-4.6s0,0,1.4-2.3
			c1.4-2.3,7.9-20.8,8.2-34.5c0.1-5.2,0.5-13.9,0.9-22.5c0,0,0,0,0,0c0.7-13.9,1.6-25.9,1.6-25.9"/>
		<path class="st16" d="M2208.2,642c0.8,0.7,4.1,5.7,9.5,7.7c5.4,2,22.5,2.9,25.7,3.3c3.2,0.4,3.2,0.4,3.2,0.4l-28.2-41.4"/>
		<path class="st16" d="M2227.8,601c5.1,8.9,12.1,20.7,13.9,21.6c2.9,1.5,3.7-0.6,6.1,0c2.4,0.6,4.2,3.3,6.1,3
			c1.9-0.3,30.9-7.3,42.5,0c0.8,0.5,1.6,1.4,2.2,2.5c8.6,14.3,6.4,73.6,8,86.4c0.1,0.4,0.1,0.7,0.1,1c2,11.2-1.4,31.8-3.9,34.7
			c-2.6,2.9-8-33.9-21.6-47.9c-13.6-14-27.2-33.7-30.6-42.3c-2.7-6.7-6.9-8.2-4.1-6.4"/>
		<path class="st16" d="M2199.6,550.1c0.1-8.5,0.3-16.6,0.5-20.4c0.4-8.5-9.5-3.9-9.5-3.9l-4.3-3.8c0,0,7.9-8.4,17.7-8.9
			c9.8-0.5,10.5,46.1,15.1,57.2c4.6,11.1,12.7,23.1,12.7,23.1s-4.8-3.4-7.1-5.7c-2.4-2.3-2.4-2.3-2.4-2.3s5.3,14.1,5.6,18.7
			c0.3,4.6,0.3,4.6,0.3,4.6s-2.6-6.2-5.7-12.7c-0.3-0.6-0.6-1.2-0.9-1.8"/>
		<path class="st16" d="M2206.2,580.4c-2.5,0.2-4.5-0.3-5.4-4.6c-0.3-1.5-0.5-3.6-0.7-6.1"/>
		<path class="st16" d="M2150.9,577.1c0,0-6.4,5.6-8.5,1.3c-2-4.3,7.3-35.6,8.5-37.8c1.2-2.2,1.2,1,1.2,1s-1.6,15.4-1.8,26.2"/>
		<path class="st16" d="M2194.9,568.3c0,1.9-0.1,3.8-0.3,5.5"/>
		<path class="st16" d="M2152.1,541.6c6.1-5.2,42.3,12,42.3,12"/>
		<path class="st16" d="M2169.7,599.7c-2.3,0.1-5-0.3-6.5-1.9c-3.1-3.3-7.6-15.6-7.6-15.6s-3.1-3.6-4.7-5.2"/>
		<path class="st16" d="M2162.1,586.7c0,0,1.9,0.8,4.6-2.1c2.7-2.9,3.8-3.1,4.6-4.1c0.8-0.9-1.1-2.8-1.1-2.8s2.8,0.1,3.2,1.8
			c0.4,1.6-1.6,1.8-2.5,3.2c-0.9,1.4-1,2.6-2.1,3.4C2167.8,587,2165.4,588.6,2162.1,586.7z"/>
		<g>
			<path class="st16" d="M2175.4,558.8c0,0,2.5,3.3,1.7,6.7c-0.8,3.4-7.5,7.6-7.8,7.4c0,0-0.4-0.8-0.8-2.1c-0.2-0.6-0.4-1.2-0.6-2
				c-0.5-1.8-0.8-3.8-0.4-5.5c0.1-0.3,0.2-0.7,0.3-0.9c0.1-0.3,0.3-0.5,0.5-0.7C2171.1,558.6,2175.4,558.8,2175.4,558.8z"/>
			<path class="st22" d="M2167.7,562.5c-0.1,0.3-0.3,0.6-0.3,0.9c-0.4,1.6-0.1,3.7,0.4,5.5c0.2,0.7,0.4,1.4,0.6,2
				c1.2,0.5,2.4,0.5,3.4-0.1c1.7-1.1,2-3.8,0.6-5.9C2171.2,563,2169.3,562.2,2167.7,562.5z"/>
			<path class="st23" d="M2171.1,564.9c1,1.5,0.8,3.4-0.4,4.2c-0.9,0.6-2,0.4-3-0.2c-0.5-1.8-0.8-3.8-0.4-5.5
				C2168.6,562.9,2170.2,563.5,2171.1,564.9z"/>
			<path class="st16" d="M2169.3,573.3c0,0-4.9-7.2-2.1-11.8s6.7-4.3,7.6-5.4c0.9-1.1,1.3-1.9,1.3-1.9s0.6,3.4-0.8,4.6
				c-1.4,1.1-4.9,1-6.9,4C2166.4,565.7,2169.3,573.3,2169.3,573.3z"/>
			<path class="st16" d="M2175.5,556.1c0,0-1.9,0.3-5.2,0.9s-5.6,2.3-5.6,2.3s2.2-1,4.1-1.1c1.9-0.1,3.1-0.2,3.1-0.2L2175.5,556.1z"
				/>
			<path class="st16" d="M2175.8,559.8c0,0,1.3,2,0.9,4.8c-0.4,2.8-2.1,4.6-2.1,4.6s2.5-2.2,3-4.2
				C2178.1,563,2175.8,559.8,2175.8,559.8z"/>
		</g>
		<g>
			<path class="st16" d="M2162.1,579.4c0,0-8-5.7-9.3-3.9c-1.3,1.8,0.8,4.9,0.8,4.9s2.5,3.5,4.2,3.3
				C2159.6,583.5,2162.3,580.6,2162.1,579.4z"/>
			<path class="st22" d="M2153.3,575.2c-0.4,0.1-0.7,0.3-1,0.6c-0.1,0.1-0.2,0.2-0.2,0.4c0.1,0.4,0.3,0.7,0.4,1.1c0.4,1,0.5,2,1,2.9
				c0.4,0.7,0.9,1.2,1.5,1.8c-1.4-1.5,0,0,0,0c0.2,0.1,0.3,0.2,0.5,0.2c1,0.4,2,0.2,2.6-0.5c1-1.2,0.4-3.4-1.2-5.1
				C2155.8,575.5,2154.4,574.9,2153.3,575.2z"/>
			<path class="st23" d="M2156.1,576.9c1.1,1.2,1.5,2.8,0.8,3.6c-0.4,0.5-1.2,0.6-2,0.3c-0.3-0.1-0.7-0.3-1-0.6
				c-0.5-0.9-1-1.9-1.5-2.9c0-0.4,0.1-0.7,0.3-1c0.2-0.2,0.3-0.3,0.5-0.4C2154.1,575.6,2155.2,576,2156.1,576.9z"/>
			<path class="st16" d="M2149.5,580.2c0.4,0.1,3.8,0.7,4.3,0.1c0.6-0.6-2.9-4.2,0.4-4.5c0,0,0.1,0,0.1,0c0.2,0,0.4,0,0.6,0.1
				c1.2,0.2,2.9,1.1,4.4,1.8c0.5,0.2,0.9,0.5,1.3,0.7c0.8,0.5,1.4,0.8,1.6,0.9c-0.1-0.1-0.8-0.7-1.7-1.5c0,0,0,0,0,0
				c-0.5-0.4-1-0.8-1.6-1.2c-0.8-0.6-1.7-1.2-2.6-1.7c-0.3-0.2-0.6-0.3-1-0.5c-1.5-0.7-2.8-0.9-3.5-0.1c-1.3,1.4,0.6,4.1,0.3,4.9
				C2151.7,580,2149.8,580.2,2149.5,580.2z"/>
			<path class="st16" d="M2152.5,578.6c0,0-1-1.4-1.8-3c-0.8-1.6-0.9-2.3-0.9-2.3s0.3,2.2,1,3.7c0.7,1.6,1.7,2.5,1.7,2.5
				L2152.5,578.6z"/>
			<path class="st16" d="M2161.4,581.2c0,0-2.1,1.5-3.2,1.8c-1.1,0.4-2.8-0.8-2.8-0.8s1.6,1.8,2.6,2
				C2158.9,584.5,2161.4,581.2,2161.4,581.2z"/>
		</g>
		<g>
			<path class="st16" d="M2173,594.7c-0.8-0.3-1.4-0.6-2-0.8c-1.8-0.6-3.9-0.6-3.9-0.6l2.2-0.6c0,0,0.3-0.4,1.7-0.1
				c1.4,0.3,4,1.1,5.5-1.1c1.9-2.8,2.1-10.5,2.1-10.5l0.3-4.9c0,0,1.3,2.8,2,6.7c0.1,0.9,0.2,2,0.2,3"/>
			<path class="st16" d="M2178.5,576.1c0,0,0.8,3.4-3.2,8c-4.1,4.5-11,9.5-11,9.5s4,0.3,7-2.1c3-2.4,6.1-7.1,7.1-9.7
				c1-2.6,0.5-5.6,0.5-5.6L2178.5,576.1z"/>
		</g>
		<path class="st16" d="M2167.8,552.2c-1.1,1-2,2.1-2.5,3.2c-1.7,3.9-3.8,7.1-8,7c0,0,2.5-6.7,5.4-9.5c0.6-0.6,1.5-1.2,2.5-1.8"/>
		<path class="st16" d="M2152.6,565.9c0,0-2.7,1.6-3.1,4.8c-0.4,3,0.4,5,0.4,5s1.5-4.3,2.6-5C2153.7,570,2152.6,565.9,2152.6,565.9z
			"/>
		<path class="st16" d="M2170.2,584.3c0,0-0.2-1.6,1.6-2.6c1.5-0.8,1.5-0.8,1.5-0.8s-0.9,1.9-1.1,2.4
			C2172,583.8,2170.2,584.3,2170.2,584.3z"/>
		<path class="st16" d="M2167.5,587.1l-3.3,0.5c0,0,1.2,0.6,2.1,0.3C2167.3,587.6,2167.5,587.1,2167.5,587.1z"/>
		<path class="st16" d="M2195.9,663.1c-5.4-0.5-16.5-16.8-21.8-30.3c-1.5-3.7-2.5-7.3-2.8-10.2c-0.7-6.7-1.1-11.1-1.4-14.2
			c0-0.5-0.1-1-0.1-1.4c-0.2-3.1-0.2-4.9-0.3-6.8c-0.1-1.5,5.8-8.5,8.7-11c4.3-3.8,4.6-8.1,5.3-9.6c1.3-2.8,3.9-3,3.9-3
			s0.7-1.2,2.7-2.5c1.5-1,3.2,0,3.2,0s1.3-0.4,2.2,0c1,0.5,0.3,6.7,0.3,6.7s0.5,0.8,0.5,2.6c0,1.8-1.8,6.6-2.9,10.3
			c-1.1,3.7-13.4,8.7-16.2,11.1s7.9,18.6,13.2,23c2.1,1.7,4.4,7.6,6,14.1C2199,651.9,2200,663.5,2195.9,663.1z"/>
		<path class="st16" d="M2186.5,576.3c0,0,0.8,3.2-1.5,8c-1.7,3.6-3.5,6.3-3.5,6.3s3.7-3.3,4.8-7.3c1.1-4,1.2-6.9,1.2-6.9
			L2186.5,576.3z"/>
		<path class="st16" d="M2192.3,573.7c0,0-1,4.8-1.7,8c-0.7,3.2-2.8,7.4-2.8,7.4s2.7-4.4,3.9-8.1c1.2-3.7,1.8-7,1.8-7L2192.3,573.7z
			"/>
		<path class="st16" d="M2196.1,575.1c0,0-1.7,9.1-3,12.2c-1.3,3.1-1.3,3.1-1.3,3.1s3.4-5,4.2-8.4
			C2196.7,578.6,2196.1,575.1,2196.1,575.1z"/>
		<path class="st16" d="M2192.1,559.3c0,0,7.1-12.4,13.8-12c6.6,0.3-3.9,23-6.9,22.9c-3-0.1-5.6-3.3-5.6-3.3L2192.1,559.3z"/>
		<path class="st16" d="M2195.8,563.8c0,0,1.8-5.7,4.8-9.5c3.1-3.8,5-4.6,5-4.6s-3.4,4.4-5.5,7.8
			C2198,560.8,2195.8,563.8,2195.8,563.8z"/>
		<path class="st16" d="M2198.7,558.3c0,0-0.6,4.3,0.6,5.5c1.2,1.2,3.6-1.4,3.6-1.4s-2.1,3.4-4.4,2.5s-1-4.6-1-4.6L2198.7,558.3z"/>
		<path class="st16" d="M2186.7,522c-0.1-0.1-0.2-0.1-0.4-0.1c-13.1-4.1-33.4,13.5-35.1,18c-1.7,4.5,0,6.3,0,6.3s7.9,1.9,15.9,5.8
			c3.1,1.5,6.3,3.3,9.1,5.4c9.7,7.3,17.9-0.9,17.9-0.9l0.4-1.5c0.9-0.3,1.4-0.6,1.4-0.6S2199.4,526.5,2186.7,522z M2181,556.7
			c-5.8-3.3-5.5-3.4-10-7c0,0-0.1-0.1-0.1-0.1c-3.8-3-4.5-3.5-4.6-3.6c0.3,0.1,3.1,1.1,6.6,2.6c4,1.7,8.9,3.8,11.7,5.7
			c3.8,2.4,7.8,1.5,9.9,0.7C2193.6,555.5,2186.5,559.8,2181,556.7z"/>
		<path class="st16" d="M2211.2,578.8c-8.8,1-11.6,9-12.5,17.7s1.4,14,1.4,14l-3.7,12.1c0,0-3.5-3.9-5.7-2.3
			c-2.3,1.6-0.2,7.3-0.2,7.3s6,12.4,6.4,20c0.5,7.6-1,15.5-1,15.5s0.5,1.4,2.9,0c2.3-1.4,11.5-26.7,16-37.6
			C2219.3,614.7,2230.7,576.5,2211.2,578.8z"/>
	</g>
	<path class="st16" d="M1882.5,653.1c0.6,2,2.5,3.3,4.6,3.2l80.5-3.9c2.8-0.1,4.8-2.6,4.3-5.4l-10.4-63.7c-0.4-2.3-2.3-3.9-4.6-3.9
		l-91.8,1c-3.1,0-5.3,3.1-4.3,6.1"/>
	<polyline class="st16" points="1874.8,596.2 1871.4,583.7 1957.7,585.8 1969,647.3 1887.2,652.2 1876,604.6 	"/>
	<polyline class="st22" points="1863.8,596.7 1860.6,585.8 1860.6,589.9 1861.9,596.7 	"/>
	<polyline class="st16" points="1997.3,653.6 1972.8,652.2 1883.5,656.5 1869.6,614.4 	"/>
	<line class="st16" x1="1879.6" y1="660.1" x2="1986.7" y2="660.1"/>
	<line class="st16" x1="1867.3" y1="615.3" x2="1877.6" y2="653.6"/>
	<g>
		<line class="st16" x1="2106" y1="798.4" x2="2108.9" y2="754.5"/>
		<line class="st16" x1="2088.4" y1="787" x2="2084.1" y2="832.5"/>
		<line class="st16" x1="2240.5" y1="820.1" x2="2234.2" y2="746.8"/>
		<polyline class="st16" points="2255.9,820.2 2259.8,850.9 2243.3,851.4 2242.6,843.9 		"/>
		<line class="st16" x1="2246.7" y1="757.5" x2="2253.6" y2="802.3"/>
		<path class="st16" d="M2223.3,671.2l-97.1-3.5 M2240.5,820.1l-6.4-76.7 M2123.6,837.2l119.6,14.2l-0.6-7 M2112.9,835.9l6.3,0.7
			 M2091.7,833.4l10.6,1.3 M2088.4,787l-4.3,45.5l3.9,0.5 M2088.6,829.1l2.8-30 M2229.8,735.6l7.6,88.3 M2126.1,670l97.3,5.6"/>
		<path class="st16" d="M2115.7,826.2"/>
		<path class="st16" d="M2088.6,829.1"/>
		<line class="st16" x1="2102.4" y1="830.5" x2="2092.3" y2="829.5"/>
		<line class="st16" x1="2207.2" y1="841.7" x2="2123.7" y2="833.8"/>
		<line class="st16" x1="1830.1" y1="700.8" x2="1833" y2="664.9"/>
		<line class="st16" x1="1818.9" y1="841.6" x2="1822.7" y2="795.4"/>
		<path class="st16" d="M1847.4,846.8"/>
		<polyline class="st16" points="1903,852.2 1960.6,857.9 1956.8,863.6 		"/>
		<polygon class="st16" points="1943.9,673.5 1959.8,865.9 1974,863.7 1954.7,673.5 		"/>
		<path class="st16" d="M1823.1,851.4l136.7,14.5l-15.9-192.4h-111.6l-0.1,1.9 M1808.5,776.2l-3.1,59.9 M1810.6,839.5l2.4-57.5
			 M1832.1,675.7h110.1l14.6,187.9l-130-13.4"/>
		<polyline class="st16" points="2017.3,665.5 1832.5,665 1831.9,675.6 2015.7,673.5 		"/>
		<line class="st16" x1="2221.2" y1="666.1" x2="2126.4" y2="665.8"/>
		<line class="st16" x1="2125.9" y1="672.3" x2="2223.3" y2="671.2"/>
		<line class="st16" x1="2126.4" y1="665.5" x2="2221.2" y2="666"/>
		<polyline class="st16" points="1836,660.7 1817.3,660.8 1818.2,664.1 2017.3,665.2 		"/>
	</g>
	<g class="st24">
		<polygon class="st25" points="2123.2,853.1 2087.1,839.8 2091.2,836.3 2123.2,851.5 		"/>
		<polyline class="st25" points="2092.9,800 2087.1,839.8 2090.7,839.8 2096.4,802.2 		"/>
		<polyline class="st25" points="2099.3,783.2 2103.7,754.9 2099.5,754.9 2097.4,769.2 		"/>
		<path class="st25" d="M2060.8,588.7c0,0-1.3,8.2,1.1,15.6c2.4,7.3,7.9,7.3,7.9,7.3"/>
		<path class="st25" d="M2119,617.7c4.6,1.3,6.1,12.7,6.9,24.4c0.8,11.6,0.9,25-0.5,33.7"/>
		<path class="st25" d="M2094.9,754.9c0.9,4.1,1.9,10.3,2.8,16.4c1.4,9.5,2.5,18.5,2.5,18.5s3.8,0.3,4.5,1.7
			c0.7,1.4-2.2,3.7-2.2,3.7l2.9,1.8c0,0,0,0-1.9,1c-1.9,1-6,5.2-6,5.2l-1.9-3.8c0,0-3.4,1.4-4.2-0.5c-0.8-1.9,2.2-4.9,2.2-4.9
			l-19.2-26.3l-10.7-16.3"/>
		<path class="st25" d="M2040.2,762c-2.6,5.1-20.2,27.9-20.5,29.6c-0.3,1.7,3.5,4.5,2.6,5.9c-0.9,1.4-2.9,1.9-2.9,1.9l-1,5.7
			c0,0-0.7,1-2.9,1.7c-2.3,0.7-6.7,0-6.7,0l-0.5-9.5c0,0-3.7-0.8-3.1-2.7c0.7-1.9,5.8-2.9,5.8-2.9s4.1-78.1,12.2-82
			c8.2-3.8,23.9-2,23.9-2"/>
		<path class="st25" d="M2039.3,736.6"/>
		<path class="st25" d="M2061.3,751.5c-5.6,4.9-15.5,18.9-17.7,17.4c-0.6-0.4-0.9-1.4-1-2.7c-0.2-3.3-4.6-5.4-4.5-10.5
			c0.2-7.1-1.7-20.1-1.9-23.9c-0.4-8.4,11.5-24.7,11.5-24.7s1.5-1.5,3.2-1.6c1.4-0.1,2.8,0.9,8,0.4c0.8-0.1,1.7-0.2,2.7-0.4
			c7.5-1.2,10-3.8,10-3.8s-3.6-2.8-2.9-4.7c0.7-1.9,5.5-1.7,5.5-1.7s-0.4-4.6-2.6-8.8l-0.8-1.6l-0.4-0.8l-0.8-1.6l-0.4-0.8l-0.7-1.4
			l-0.6-1.3c-0.1-0.1-0.1-0.3-0.2-0.4v0c-0.4-0.9-0.7-1.4-0.7-1.4s5-20.2,6.4-35c0.5-5.3,0.6-9.8-0.2-12.5
			c-2.7-9.3-9.6-12-10.7-12.4c-0.1,0-0.1,0-0.1,0s-3.4-1.8-0.9-3.6c2.5-1.8,12.7,2.7,20.7,3.1"/>
		<path class="st25" d="M2018.3,660.5c0,0-1.8-4.2-3-5.5c-1.2-1.4-9.6-3.9-11.4-4.1c-1.8-0.2-3.3,3.2-3.3,3.2s-4.7,0.5-6.8,2
			c-1.1,0.9-2.4,2.6-2.4,2.6s-4.4,1.4-4.6,1.8c-0.2,0.4,1.6,2.5,5,2.5c3.4,0,6.7-0.9,7.8-0.8c1.1,0.1,4,2.9,7.3,3.4
			c3.3,0.5,10.2,1.2,10.2,1.2S2019,662.1,2018.3,660.5z"/>
		<path class="st25" d="M2067.6,678.6c-4.4,12.4-9.2,22.5-12.3,23.1c-6.9,1.2-30.6-6-32.4-7.1c-1.8-1.1-9.4-10.3-7-22.8
			c0.7-3.9,1.5-6.8,2.1-9l0,0c1.4-4.8,2.3-6.1,2.3-6.1s4.4,3.3,8.5,6.9c3.9,3.5,13.8,9,14.7,9.5c-0.4-0.3-2.3-1.7-1-2.5
			c0.7-0.4,1.7,0,2.6,0.6c1.2,0.7,2.3,1.7,2.5,1.9l0,0c0,0,2-8.2,5.8-26.3c3.8-18.2,8.9-29.5,8.9-29.5s0.1,0,0.1,0"/>
		<path class="st25" d="M2110.1,685.9c-0.2-0.1-1.6-1-3.6-4.7c-2.2-4-3.2-12.5-3.2-12.5s0,0,0,5c0,4.8,1.9,10.7,2,11.1
			c-0.4-0.4-7.2-7.3-5.7-17.9c1.5-10.9,3.6-21.2,1.4-31c-2.2-9.8-13.4-19.2-18.8-19.1c-5.4,0.1-11.3-2.1-11.8-3.5
			c-0.5-1.4-13.9-35.4-13.9-35.4s-4.6,6.5-3.1,19.9c1.5,13,3.8,18.7,3.9,19.1c-0.2-0.3-3.2-4.7-5.6-12.2c-2-6.1-5.6-30-1.2-45.9
			c0,0,0,0,0,0c1.1-4,2.7-7.6,5-10.2c11.3-12.9,18.4-14.3,26-16.1c2.9-0.7,23.9-2.6,30.7,7.6c5.8,8.7,9.6,21.8,3.8,45.3
			c-1.9,7.8-1.2,19.4,1.6,24.5c0.8,1.4,1.1,2.7,1.3,4l0,0.1c0.5,3.4-0.3,6.9,0.8,12.8c1.6,8.2-8.4,45.2-10.3,49
			C2107.5,679.3,2110,685.5,2110.1,685.9z"/>
		<path class="st25" d="M2018.3,805.2c0,0,6.3,8.7,6.4,11.4c0.1,2.7-2.3,32.7-2.3,32.7h-3.1l-5.5-19.2c0,0-6.1,10.7-8,15.4
			c-1.9,4.7-4.3,4.5-7,4.5c-2.6,0-8.6-2-7.6-4.2c1-2.2,7-4.6,7-4.6s3.5-12,6.9-21.1c3.4-9.1,4.5-13,4.5-13S2014,808.4,2018.3,805.2z
			"/>
		<path class="st25" d="M2014.1,831.5c0,0,1.1-9.2,4.2-12.4c3.1-3.2,3.1-3.2,3.1-3.2s-3.5,1.6-6.5,7.8c-3.1,6.3-4.6,12.7-4.6,12.7
			L2014.1,831.5z"/>
		<path class="st25" d="M2103.5,798.1c0,0,8.1,0.9,10.2,2.6c2,1.7,12.8,31.3,12.8,31.3l-4.6,1.6l-11.6-16c0,0,4,16.1,2.3,19.5
			c-1.8,3.4-12.3,3.4-12.5,1.3c-0.2-2.2,3.6-4.9,3.6-4.9s-4.2-19.8-4.9-25.4c-0.6-5.5-0.6-5.5-0.6-5.5S2101.5,799.1,2103.5,798.1z"
			/>
		<path class="st25" d="M2111.6,819.4c0,0-2-6.6-0.8-11.8c1.1-5.3,2.6-6.5,2.6-6.5s-3.3,1.7-4.5,6.5c-1.1,4.8,1.4,10,1.4,10
			L2111.6,819.4z"/>
		<path class="st25" d="M2141.6,741.3c-0.8,1.3-1.7,2.4-2.7,3.4c-19.1,18.9-95.4,7.2-96.3-1c-0.7-6.2,15.4-1.8,40-25.6
			c3.8-3.7,7-7.2,9.8-10.4c15-17.6,16.9-28.3,34-32.2C2149,670.6,2154,722.1,2141.6,741.3z"/>
		<path class="st26" d="M2141.6,741.3c-0.8,1.3-1.7,2.4-2.7,3.4c-19.1,18.9-95.4,7.2-96.3-1c-0.7-6.2,15.4-1.8,40-25.6
			c3.8-3.7,7-7.2,9.8-10.4"/>
		<polyline class="st25" points="2124.1,823.6 2126.5,751.4 2123.2,752.3 2120.2,815.4 		"/>
		<polyline class="st25" points="2119.5,830.3 2118.5,850.7 2038.8,850 2064.5,752.4 2061.3,751.5 2032.8,856.3 2123.2,853.1 
			2123.2,849.6 2123.7,833.5 		"/>
	</g>
	<g>
		<path class="st16" d="M1767.1,624.6c0,0,17.9,4.7,21,14.7c2,6.4,25,9.9,25,9.9s0.3,0.8,0.8,2.2"/>
		<path class="st16" d="M1819.5,667c0.1,0.3,0.2,0.6,0.3,0.9c2.6,7.5,5.6,16.5,8.4,25.9c7,23.4,7.5,35.3,7.7,38.7
			c0.2,3.4-0.6,24.1,4.6,41.8c5.3,17.7,16.3,39.7,16.3,39.7s4.2-0.2,5.8,1.7c1.5,1.9-1.7,6.1-1.7,6.1l2.1,4.4c0,0-2.8,3.1-8.2,4.7
			c-5.4,1.6-6.6,0-6.6,0l-1.4-2.8c0,0-2.9-1.2-2.2-3.6c0.7-2.4,0.7-2.4,0.7-2.4s-5.2-5.6-12-13.7c-12.3-14.6-29.7-37.2-30.5-49
			c-0.1-1.4-0.2-2.8-0.2-4c-0.2-5.6,0-9.3,0.3-11.8c0,0,0,0,0,0c0.6-4,1.4-4.7,1.4-4.7s-4.6-0.3-5.3-3.6c-0.7-3.1,2.4-2.5,0-5.3
			c0,0-21.2-26-29.4-50.7c-4.8-14.6-8.2-21.8-10.2-25.3"/>
		<path class="st16" d="M1799.6,736.8c0,0,3.9-0.7,11.9,0c8,0.7,12.3-0.3,12.3-0.3s-17.4,3.1-19.5,2.7
			C1802.4,738.7,1800.2,738,1799.6,736.8z"/>
		<line class="st16" x1="1812.3" y1="648.9" x2="1819.5" y2="667"/>
		<path class="st16" d="M1849.3,650.3c0,0,6.2,0.4,10.1,0.5c3.9,0.1,10.6,0.6,14.2,1.5c3.6,0.8,9.7,3.3,10.1,4.2
			c0.3,0.8,0.4,2-1.8,1.9s-3.5,0-3.5,0l1.3,1.7c0,0-3.4,1.7-6.4,0.9s-12.6,0.1-17,0.2s-9.7,2.2-12,2c-2.3-0.2-2.5-4.2-2.5-4.2
			S1844.9,654.8,1849.3,650.3z"/>
		<path class="st16" d="M1879.6,660.1c0,0-5.8-4.2-8.2-4.7c-2.4-0.5-9.1,0-10.5,0c-1.4,0-1.4,0-1.4,0s9.5-1,12.2-1.2
			c2.7-0.2,8.8,4.2,8.8,4.2"/>
		<path class="st16" d="M1829.9,845.7v3.1c0,0-5.7,3.5-16.2,4s-10.5-2-16.4-1.4c-5.9,0.6-8.5,0.9-12.5,1c-4,0-2.6-2.1-2.6-2.1
			s13.4-1.7,18.3-1.7c10.1-0.2,15.6,1.1,15.6,1.1L1829.9,845.7z"/>
		<path class="st16" d="M1847.8,847.8c0,0,1,2.1,1.9,2.6c0.9,0.5,12.1-1.1,21.2,1.8c9.1,2.8,22.3,1.8,26.5,1.2
			c4.2-0.6,7.2-2.5,7.2-2.5v-2.1l-31.9-1L1847.8,847.8L1847.8,847.8z"/>
		<path class="st16" d="M1813.9,652.9l-0.8-4.3c0,0-9.6-1-17.7-4c-7.7-2.8-8.3-10.1-12.9-12c-4-1.7-10.9-7.2-15.4-8.1
			c-5-0.9-12.1,0.5-12.1,0.5s-4.8,14-4.3,19.9c0.6,7-0.5,6.2,1.3,11c0,0-3.6,1.4-2.3,2.2c1.4,0.8,3.6,1.7,3.6,1.7s0.1,8.2,0.9,17.9
			c0.7,8.4,2,17.8,4.2,24.2c4.9,13.8,8.3,23.5,8.3,23.5s-7.1,0.6-6.3,3c0.7,2.4,6.3,4.1,6.3,4.1s-2.2,30.6,0,44.3
			c2.2,13.8,14.3,50.3,14.3,50.3s-3.6,1.9-2.5,3.8c1,1.9,4.4,1.9,4.4,1.9l-1,3.8c0,0,4.6,0.9,9.2,0c4.6-0.9,6.3-3.3,6.3-3.3
			l-0.9-2.4c0,0,1.9-4.2,0.9-6.4c-1-2.2-4.2-5-4.2-5s-0.7-30.6,1.3-52.7c2.1-22.1,2.5-39.5,2.5-39.5"/>
		<path class="st16" d="M1898.2,590.7c0,0,2.7,3.6,3.7,5.1c1,1.5-5.1,5.5-5.1,5.5s-12-1.9-11.6-5.9
			C1885.6,591.3,1898.2,590.7,1898.2,590.7z"/>
		<path class="st16" d="M1872.2,597.1c0,0,10.5-6.1,15-8.3c4.4-2.3,5.4-2.9,7.9-2.8s8.1-0.1,13.7,0c5.6,0.1,6.5-0.3,7,0
			c0.4,0.2-0.6,5.2-4.5,4.9c-10.3-0.8-16.3,0.1-17.6,0.5c-1.3,0.4-5.5,4.7-5.1,5.6c0.4,0.9,2.5,1.9,5.1,2.6c2.5,0.7,6.3,0.1,8.1,0.8
			c1.7,0.7,1.5,3.6,0.8,3.8c-0.7,0.2-8.3,1.3-12.3,0.6c-4-0.7-4.1,0.2-8.9,0.2c-4.8,0-7.2-0.7-9-1.3
			C1870.6,603.1,1869.9,601.3,1872.2,597.1z"/>
		<path class="st16" d="M1825.4,616.5c-4.1-0.7-6.5-1.6-7.2-2.2"/>
		<path class="st16" d="M1847.6,596.7c0,0,6.9,0.7,14,0c7.1-0.7,5.5-1.4,8.4-1.4s3.9,0.8,3.9,0.8s-4,3.8-2.8,8.1
			c1.2,4.3,2.8,5.8,2.8,5.8s-2.4,5.6-7.2,5.1c-4-0.4-11.7,0-18.6,1.1"/>
		<g>
			<path class="st16" d="M1827.6,508.3c1.5-8.5,4.3-12.6,4.3-12.6l-2.8,0.9l-8.1,6.8"/>
			<path class="st16" d="M1885.1,497.9c-1,1.2-1.9,2.3-2.5,2.6c-1.4,0.9-1.6,11.7-3.1,14.5c-1.5,2.8-10,7.7-15.6,13.9"/>
			<path class="st16" d="M1887.5,486.1c0.2,3.6,1,7.4,1,7.4"/>
			<path class="st16" d="M1831.3,512.5c-2.2-3-0.2-14.2,2.7-23.8"/>
			<path class="st16" d="M1862.6,509.5c0,0-1.6,1.9-2.1,3.3c-0.5,1.5,1,2,2.5,2c1.5,0,3.1,0.8,3.7,1.6s3.7,0,3.7,0l0.5-0.8
				c0,0-0.9-1.7-4.6-2.1c-3.8-0.4-4.7-1-4.4-1.5C1862.2,511.5,1862.6,509.5,1862.6,509.5z"/>
			<g>
				<path class="st16" d="M1881.3,503.6c-0.1,2.5-0.7,4.8-0.7,4.8s-0.9,0.8-2.6,0.5c-0.1,0-0.1,0-0.2,0c-0.2,0-0.5-0.1-0.7-0.2
					c-1.6-0.4-3.1-1.2-3.1-1.2s0.5-2.6,1.4-5.1h0c0.9-2.4,2.2-4.7,3.9-4.3c1.2,0.3,1.7,1.6,1.9,3.2c0,0,0,0.1,0,0.1
					C1881.3,502.2,1881.3,502.9,1881.3,503.6z"/>
				<path class="st16" d="M1877.2,505.5c-0.2,1.1-0.3,2.2-0.1,3.1c0.2,0.1,0.5,0.1,0.7,0.2c0.1,0,0.1,0,0.2,0
					c1.7,0.3,2.6-0.5,2.6-0.5s0.6-2.3,0.7-4.8c0-0.8,0-1.5-0.1-2.2c-0.1-0.1-0.3-0.1-0.4-0.2c-0.5-0.1-1,0-1.5,0.4
					C1878.4,502.3,1877.6,503.8,1877.2,505.5z"/>
				<path class="st16" d="M1878,506.1c-0.2,1-0.2,2,0.1,2.7c1.7,0.3,2.6-0.5,2.6-0.5s0.6-2.3,0.7-4.8c-0.2-0.3-0.4-0.5-0.7-0.5
					c-0.2,0-0.4,0-0.5,0C1879.2,503.3,1878.3,504.5,1878,506.1z"/>
				<path class="st16" d="M1880.6,508.4c0,0-0.7,0.5-2.7,0.1c-2-0.3-3.9-1-3.9-1s2.2,1.8,3.8,2.2
					C1880.3,510.2,1880.6,508.4,1880.6,508.4z"/>
			</g>
			<g>
				<path class="st16" d="M1863.6,504.1c0,0-0.5,0-1.3,0c-0.9,0-2.3-0.1-3.9-0.3c-0.2,0-0.4-0.1-0.7-0.1c-3.4-0.6-5.1-4.5-5.1-4.5
					s0.3-1.4,1.1-3.1v0c1-2.4,2.9-5.4,5.7-5c1.6,0.2,2.6,1.8,3.2,3.8c0.1,0.2,0.1,0.3,0.1,0.5c0.7,2.4,0.8,5.3,0.9,7.1
					C1863.7,503.5,1863.6,504.1,1863.6,504.1z"/>
				<path class="st16" d="M1857.6,499.3c-0.4,1.8-0.1,3.5,0.8,4.6c1.6,0.2,3,0.3,3.9,0.3c0.5-0.4,1-1,1.3-1.6c0-1.8-0.2-4.6-0.9-7.1
					c-0.2-0.1-0.5-0.3-0.7-0.3C1860.2,494.8,1858.2,496.6,1857.6,499.3z"/>
				
					<ellipse transform="matrix(-0.2126 0.9771 -0.9771 -0.2126 2745.925 -1212.1354)" class="st16" cx="1861.3" cy="500.3" rx="3.5" ry="2.4"/>
				<path class="st16" d="M1852.7,499.2c0,0,1.7,2.1,4.8,3.4c2.8,1.2,4.4,1.6,4.4,1.6s-3.4,0.7-5.1-0.2
					C1852.4,501.8,1852.7,499.2,1852.7,499.2z"/>
			</g>
			<path class="st16" d="M1881.2,501.5h-2.9l-2.9,0.9c0.9-2.4,2.2-4.7,3.9-4.3c1.2,0.3,1.7,1.6,1.9,3.2
				C1881.2,501.4,1881.2,501.5,1881.2,501.5z"/>
			<path class="st16" d="M1862.6,495c-0.2-0.1-2.4-0.9-4.5-0.4c-2.2,0.6-4.4,1.5-4.4,1.5v0c1-2.4,2.9-5.4,5.7-5
				C1861,491.4,1862,493,1862.6,495z"/>
			<path class="st16" d="M1853.7,496.1c0,0,4.2-1.4,7.1-0.9c2.9,0.5,4.1,0.9,4.1,0.9s-1.2-1.7-3.1-2.1c-1.9-0.4-4.5,0.3-5.9,1
				C1854.6,495.6,1853.7,496.1,1853.7,496.1z"/>
			<path class="st16" d="M1875.4,502.4c0,0,2-0.8,3.9-0.7c1.9,0.1,3.3,0.4,3.3,0.4l-1.5-1.3c0,0-0.9-0.5-2.8,0
				C1876.8,501.2,1875.4,502.4,1875.4,502.4z"/>
			<path class="st16" d="M1866.6,489.1l6-3.4l-4,1l2.5-2.4l-3.5,1l2-1.9c0,0-4.4-0.8-10,0c-5.6,0.8-8.1,1.9-8.1,1.9s0.8,2.5,1.6,2.7
				C1854.1,488.3,1863.6,488,1866.6,489.1z"/>
			<path class="st16" d="M1876.2,493.5l6.3-3l-2.1,2l4.1-2c0,0,2.8,1.7,4,3s0.4,2.3,0.4,2.3l-3.3,2.3c0,0-0.7-1.7-3.7-2.3
				C1878.8,495.2,1876.5,494.1,1876.2,493.5z"/>
			<path class="st16" d="M1872.7,495.7c0,0,0.6,6.2-0.7,12.2c-1.3,6-1.6,8.6-1.6,8.6s0.4,0.2,0.7-0.2s1.8-5.1,2.5-10.2
				C1874.3,501,1872.7,495.7,1872.7,495.7z"/>
			<path class="st16" d="M1861.9,514.1c0,0,1.6-0.3,2.8,0s1.4,1.9,1.4,1.9s-1.1-0.7-2.4-0.8C1862.4,515.2,1861.9,514.1,1861.9,514.1
				z"/>
			<path class="st16" d="M1852.2,513.2c0,0,4.1,3.5,8.3,5.5c4.3,2,6.9,1.4,6.9,1.4s-7.7,7-12.6,5.6c-4.8-1.5-3.2-11.6-3.2-11.6
				L1852.2,513.2z"/>
			<path class="st16" d="M1863.6,520.6c0,0-2.3,1.5-3.7,1.4c-1.3-0.1-2.9-1-5-3.4c-2.1-2.5-2.7-4.6-2.7-4.6
				S1858.7,520.2,1863.6,520.6z"/>
			<path class="st16" d="M1834.5,477.5c0,0-0.2-6.4-9.1-5.1c-8.9,1.3-1.3,22.5,2.8,24.4"/>
			<path class="st16" d="M1833.9,489.1c0,0,0.3-4.4-2.5-8.6c-2.8-4.2-6.7-4.7-6.7-4.7s4.4,4.9,5.8,8.7S1833.9,489.1,1833.9,489.1z"
				/>
			<path class="st16" d="M1833.9,489.1c-0.3-1.3-0.2-7.6,0.1-9.2c0,0,3.9-20.9,6.8-25.5c1.9-3,10.1-6.8,18.2-9.6
				c4.2-1.5,8.4-2.6,11.6-3.2c9.2-1.6,10.9-1.1,10.9-1.1l-9.2,2.9c0,0,15.1,4.7,19.2,10.4c5.8,8.2,3.5,19.9,3.5,19.9l-6.6-7
				c0.1,0.3,2.5,5.5,3,8.9c0.5,3.5-0.1,12.1-0.1,12.1s-1.5,0.2-6.5-2.7c-1.4-0.8-3.1-1.9-5.1-3.3c-9.1-6.3-8.9-8.5-16-11.5
				c-7.1-3-12.2-1.1-12.2-1.1s2.2,0,2.4,3.3c0.2,3.3-10.3,11.6-15.5,15.2"/>
			<path class="st16" d="M1887.5,486l-2.7-1c-1.4-0.8-3.1-1.9-5.1-3.3c-9.1-6.3-8.9-8.5-16-11.5c-7.1-3-12.2-1.1-12.2-1.1
				s2.2,0,2.4,3.3"/>
			<path class="st16" d="M1834,479.8c0,0,3.9-20.9,6.8-25.5c1.9-3,10.1-6.8,18.2-9.6"/>
			<path class="st16" d="M1849.1,526.8c0,0,3.7,2.7,4.6,2.4c0.9-0.3,0.9-0.3,0.9-0.3s0.8,3.4,3.5,3.6c2.8,0.2,6.8-4.6,6.8-4.6
				s0.6,7,0,13.6c-0.3,3.5-1.7,6.5-3.1,9c-1.2,2.2-2.4,3.9-3,5.2c-1.2,2.7,0,4.4,0,4.4s-3.5-0.6-5.3-2.7c-1.6-1.8-2.1-2.7-2.2-2.9
				c0.1,0.4,1,3.1,2,4.3c1.1,1.3,1.1,1.3,1.1,1.3s-2.4-0.8-5.7-3"/>
			<path class="st16" d="M1838.3,487.7c0,0-2.9,14.2-0.7,23.9"/>
			<path class="st16" d="M1861.9,550.4c-1.2,2.2-2.4,3.9-3,5.2c-1.2,2.7,0,4.4,0,4.4s-3.5-0.6-5.3-2.7c-1.6-1.8-2.1-2.7-2.2-2.9
				c0.1,0.4,1,3.1,2,4.3c1.1,1.3,1.1,1.3,1.1,1.3"/>
		</g>
		<path class="st16" d="M1813.6,619.7c0.7,1.1,5,3.8,4.9,6.9c-0.2,3.1-3.6,5.6-3.6,5.6l-1.3,11.4c-9.6,2.4-18.2-1.9-32-12.4
			c-0.8-0.7-1.7-1.2-2.5-1.8c-2.6-1.7-5.2-2.9-7.6-3.7c0,0,0,0,0,0c-9.3-3.1-16.5-0.6-16.5-0.6s-1.9-3.6-1.7-5.4
			c0.2-1.8,7.1-8.1,7.1-8.1s-0.2-2,0-4.6c0.2-2.6,1.9-1.5,4.9-3.7c3.1-2.1,8.7-36.9,16.3-53.6c7.7-16.6,14.8-29.6,20.2-34.1
			c5.4-4.6,9.3-5.6,9.3-5.6"/>
		<path class="st16" d="M1823.6,608.6c-4.5,6-10.4,10.5-10,11.1c0.7,1.1,5,3.8,4.9,6.9c-0.2,3.1-3.6,5.6-3.6,5.6l-1.3,11.4
			c-9.6,2.4-18.2-1.9-32-12.4c-0.8-0.7-1.7-1.2-2.5-1.8c6.1,2.9,14,6.2,16.1,5.8c3.5-0.7,0-4.9-4-8.3c-4-3.3-20.4-11-21.4-11.4
			c0.9,0.4,14.8,2.4,24.6,5.6c10.2,3.4,18.1,6.8,16.8,3.2c-1.3-3.6-6.6-7.2-5.9-10.2c0.7-2.9,8.8-15.6,7.4-18.8
			c-1.4-3.2-12.2-14-5-13.9c7.3,0.1,12.9-4,12.9-4l0.9,18.2L1823.6,608.6z"/>
		<path class="st16" d="M1818.3,521.1c-1.1-2.2-2.9-5.1-4.1-6.1c-2.5-2.4-3-4.9-3-4.9s4.7-8.5,6.3-8.3c1.6,0.2,8.2,4.3,10.6,7.1
			c2.5,2.8,3.4,4.1,4,4.2c0.4,0.1,4.6-0.9,8.9,0c0,0,0.1,0,0.1,0c2.3,0.5,4.7,1.6,6.3,3.7c0.8,1,1.3,3.6,1.6,7.3
			c1.5,18.3-2.2,62.7-1.6,62.8c0.7,0.2,2.4,6.7,1.5,7.6c-0.8,0.9-1.4,2.4-1.5,3.5c-0.1,1.1,1.3,27.6,1.1,34.3
			c-0.1,3.9,0.3,6.2,1.1,7.9c0.6,1.2,1.4,2.1,2.5,2.9c2.6,1.9-2,6.1-2,6.1s-3.7,3.7-6.3,6.8c-2.6,3.1-3.3,5.4-3.3,5.4
			s-6-0.1-7.7-3.3c-1.7-3.2,0.8-8.8,0.3-13c-0.4-4.2-9.9-31.8-11.6-49.5c-1.7-17.7-0.7-56.6-1-65c-0.1-1.8-0.5-4.7-0.8-6.1"/>
		<path class="st16" d="M1843.8,514c0,0-6.5-1.4-14.3,2.8c-7.8,4.2-16.8,14.7-16.8,14.7s4.6-12.3,14.8-17.5
			C1837.7,508.9,1843.8,514,1843.8,514z"/>
		<path class="st16" d="M1760.3,608.3c0,0,5.7,0.8,11.8,2.6s6.1,1.8,6.1,1.8l-17.9-1.8L1760.3,608.3z"/>
		<path class="st16" d="M1834.2,544.4c-6.9,9.3-1.4,43.5-3.1,52.7c-1.6,9.1,1.3,31.3,5.8,37c4.5,5.7,12.7,6.2,12.7,6.2
			c0.6,1.2,1.4,2.1,2.5,2.9c2.6,1.9-2,6.1-2,6.1s-3.7,3.7-6.3,6.8c-2.6,3.1-3.3,5.4-3.3,5.4s-6-0.1-7.7-3.3c-1.7-3.2,0.8-8.8,0.3-13
			c-0.4-4.2-9.9-31.8-11.6-49.5c-1.7-17.7-0.7-56.6-1-65"/>
		<path class="st16" d="M1862.5,825.3c0,0,13,10.5,20.2,13.2c7.1,2.7,14.9,2.7,17.5,3.7c2.5,1,4.4,6.6,4.4,6.6s-10.7,3.7-21.9,2.2
			c-11.2-1.6-23.6-2.6-27.9-2.4c-4.3,0.2-5.7-0.2-7-0.8c-1.4-0.6,0-16,0-16S1858.9,831.5,1862.5,825.3z"/>
		<path class="st16" d="M1796.4,831.1c0,0,13.6,8.2,18.7,9.8c5.1,1.5,8.8,0.8,11.4,1.2c2.5,0.3,4,2.9,3.4,3.7s-5.9,3.1-12.7,3.9
			c-6.8,0.8-16.1-1.8-20.7-0.9c-4.6,0.8-12.6,2.3-14.3,1.6c-1.7-0.7,0.8-13.2,0.8-13.2S1793.3,838.6,1796.4,831.1z"/>
	</g>
	<polygon class="st3" points="1505.7,836.1 1508.4,832.5 1505.7,738.8 1505.1,737.9 	"/>
	<g>
		<path class="st27" d="M1628.6,810.9v3.8c0,0,8.6,2.2,13.6,7.9c5,5.7,7,8.3,12.6,9.4c5.5,1.1,14.6,0,14.6,0v-2.6l-18.1-5.1
			l-19.7-14.6L1628.6,810.9z"/>
		<path class="st27" d="M1681.2,840.9l1.6,3.3c0,0,5.9-0.1,11.2,4.1c5.3,4.2,7.5,7.1,15,7.8c7.5,0.7,21.4-7.6,21.4-7.6v-2.9
			l-24.6,5.7L1681.2,840.9z"/>
		<path class="st16" d="M1665,594.3c-1.4,4.6-0.8,2.5-1.8,5.5c-1.5,4.5-2.5,7.1-2.5,7.1s4.6,0.7,5.1,2.8c0.4,2.1-2.8,4.2-2.8,4.2
			s6.6,11.5,6.1,12.5c-0.5,1-8,7.6-24,13.4c-7.2,2.6-16,3.2-23.4,2.9c-9-0.4-16.1-2-16.7-2.9c-1-1.7-3.6-24.3,1.5-33.1"/>
		<path class="st16" d="M1607.3,561c-0.1-1.7-0.3-3.6-0.4-5.3c-0.3-4.6-0.5-8.6-0.5-8.6s-0.7-6.1-9.4-10.8
			c-8.7-4.6-21.5-5.3-21.5-5.3s-2.8-1-1.7-3.8c0.8-1.9,2.6-3,7.1-6c2.2-1.4,5-3.3,8.7-5.9c6.9-4.9,12.2-9.5,15.3-12.3l0.6-0.6
			c1.1-1,1.8-1.7,2.2-2.1l0.2-0.2l0,0c0,0,12.4,9.2,22.9,10.1c10.4,1,12.8-6.4,12.8-6.4l0.1,0c0.3,0.1,1.5,0.4,3,0.8
			c0.8,0.2,1.8,0.4,2.8,0.6c1.3,0.3,4.7,0.5,8.6,0.7c6.3,0.4,13.6,0.7,15,1.2c2.1,0.8,0.8,5.1,0.8,5.1s-4.6,6.2-5.9,10
			c-1.3,3.7,10.8,18.6,5.2,43.2"/>
		<path class="st16" d="M1643.4,505.6c0,0-0.2,0.4-0.5,1.1c0,0,0,0,0,0c-0.6,1-1.6,2.6-3.3,3.8c-2.7,2-9.8,3.1-17-1.1
			c-7.2-4.2-15.2-6.8-15.2-6.8l2.1-15.1l0.5-3.8c0.4-2.6-1.3-9.6-1.3-9.6"/>
		<path class="st16" d="M1643.4,502.5v3.2c0,0-0.2,0.4-0.5,1.1c0,0,0,0,0,0c-0.5,0.1-12.3,3.1-19.4,0c-7.2-3.2-11.3-14.8-12.3-16
			c-1-1.3-1.8-3.1-1.8-3.1v0l0.5-3.8c0.4-2.6-1.3-9.6-1.3-9.6"/>
		<path class="st16" d="M1615.1,441.8c4.3-4.2,22.5-8.6,27.7-8.8c7.4-0.2,13.4,7.7,13.4,7.7s0.6,1.9,1.3,4.1c0,0,0,0,0,0
			c0.6,2,1.3,4.3,1.4,5.4c0.3,2.3,0.6,3.7-0.4,4.2c-1,0.5-1.7,6-1.3,8.4c0.4,2.4,1.9,4.8,1.9,6.4c0,1.6-3.1,9-4.6,15.2
			c-1.4,6.2,0.1,14.5-1.6,16.3c-1.8,1.8-11.3,2.7-14.2,2c0,0,0,0,0,0c-2.9-0.8-9-3.4-14.2-4.1c-5.2-0.7-17.7-28.2-18.2-29.3"/>
		<path class="st16" d="M1638.8,502.6c-2.9-0.8-9-3.4-14.2-4.1c-5.2-0.7-17.7-28.2-18.2-29.3c-0.5-1.2,2.7-23.9,7.1-28.1
			c4.3-4.2,24.1-7.9,29.3-8.1c7.4-0.2,13.4,7.7,13.4,7.7s0.6,1.9,1.3,4.1"/>
		<g>
			<path class="st22" d="M1627.2,466.4c0,0,2.8,3,6.1,2.5c0.2,0,0.3-0.1,0.5-0.1c1.7-0.3,3.1-0.7,4-1c0.7-0.3,1.2-0.4,1.2-0.4
				s-0.1-0.5-0.4-1.2c-0.2-0.5-0.4-1.1-0.7-1.8l0,0c-0.1-0.2-0.2-0.5-0.3-0.7c0,0,0,0,0,0c0,0,0,0,0,0c0,0,0,0,0-0.1c0,0,0,0,0,0
				c-0.6-1.3-1.3-2.7-2.2-3.9c-0.2-0.3-0.4-0.5-0.6-0.8c-1.2-1.4-2.5-2.4-3.9-2.1c-3.8,0.7-3.7,7-3.6,9
				C1627.1,466.1,1627.2,466.4,1627.2,466.4z"/>
			<path class="st28" d="M1637.6,467c0,0.2-0.1,0.5-0.1,0.7c0,0.1-0.1,0.2-0.1,0.3c-0.1,0-0.2,0.1-0.3,0.1c-1.3,0.5-3.1,1.1-4.5,1
				c-0.2,0-0.3,0-0.5-0.1c-0.1,0-0.2,0-0.3-0.1c-0.5-0.6-0.8-1.4-1-2.3c0-0.1-0.1-0.2-0.1-0.3c0-0.1-0.1-0.3-0.1-0.5
				c-0.3-2.4,0.8-4.6,2.6-5c1.9-0.4,3.9,1.4,4.4,4C1637.6,465.8,1637.6,466.4,1637.6,467z"/>
			
				<ellipse transform="matrix(0.1973 0.9803 -0.9803 0.1973 1768.3748 -1227.9701)" class="st22" cx="1634.1" cy="465.9" rx="2.8" ry="2"/>
			<path class="st16" d="M1627.2,466.4c0,0,0-0.2,0-0.6c-0.1-1.7,0.1-6.5,3.6-7.7c1.2-0.4,2.4,0.1,3.4,1c0.2,0.2,0.4,0.4,0.7,0.6
				c1,1.1,1.9,2.5,2.6,3.8c0,0,0,0,0,0c0,0,0,0,0,0.1c0,0,0,0,0,0c0,0,0,0,0,0c0.1,0.2,0.2,0.4,0.3,0.6c0.3,0.7,0.6,1.3,0.8,1.7
				c0,0,0,0,0,0c0.2,0.4,0.2,0.6,0.2,0.6s-0.1-0.3-0.2-0.8l0,0c-0.2-0.6-0.4-1.5-0.8-2.5c-0.4-1.1-0.9-2.3-1.5-3.5
				c-0.2-0.4-0.5-0.8-0.7-1.1c-1.2-1.7-2.8-2.9-4.7-2.7C1624.4,456.7,1627.2,466.4,1627.2,466.4z"/>
			<path class="st29" d="M1638.9,467.3c0,0-0.6,0.3-1.5,0.7c-0.1,0-0.2,0.1-0.3,0.1c-1.3,0.5-3.1,1.1-4.5,1c-0.2,0-0.3,0-0.5-0.1
				c-0.1,0-0.2,0-0.3-0.1c-3.4-0.7-4.7-3-4.7-3s1.3-0.1,3.5,0h0.1c0.5,0,1,0.1,1.6,0.1h0c1.2,0.1,2.5,0.3,3.6,0.5
				c0.6,0.1,1.1,0.2,1.6,0.3c0,0,0.1,0,0.1,0C1638.4,467.2,1638.9,467.3,1638.9,467.3z"/>
		</g>
		<g>
			<path class="st22" d="M1649.8,466.2c0,0,1,0.3,2.3,0.4c0.4,0,0.8,0.1,1.2,0.1c0.2,0,0.3,0,0.5,0c1.8,0,2.6-0.9,2.6-0.9s0,0,0-0.1
				c0-0.2,0-0.9,0-1.7c0,0,0,0,0,0c-0.1-1.4-0.2-3.3-0.7-4.9c-0.1-0.3-0.2-0.6-0.3-0.9l0,0c-0.5-1.2-1.2-2-2.2-2
				c-0.7,0-1.3,0.3-1.7,1c-0.5,0.7-0.9,1.8-1.1,3c-0.2,0.9-0.3,1.9-0.4,2.8c0,0,0,0,0,0c0,0.4-0.1,0.8-0.1,1.1c0,0.1,0,0.1,0,0.2
				C1649.8,465.4,1649.8,466.2,1649.8,466.2z"/>
			<path class="st30" d="M1656.2,465.9L1656.2,465.9C1656.2,465.9,1656.2,465.9,1656.2,465.9c-0.1,0.2-0.4,0.5-0.7,0.8
				c-0.1,0.1-0.2,0.2-0.4,0.3c-0.4,0.2-0.9,0.4-1.5,0.4c-0.1,0-0.3,0-0.4-0.1c-0.2,0-0.3-0.1-0.5-0.1c-0.6-0.1-1.1-0.3-1.6-0.5
				c-0.1,0-0.1,0-0.2-0.1c0,0-0.1,0-0.1,0v0c0-0.1,0-0.1,0-0.2c0-0.2,0.1-0.3,0.1-0.5c0.3-2.3,0.7-5.3,2.6-5.3
				c1.5,0.1,2.5,2,2.7,4.6c0,0,0,0.1,0,0.1C1656.2,465.6,1656.2,465.7,1656.2,465.9z"/>
			<path class="st22" d="M1655.7,465.2c0,0.2,0,0.4,0,0.6c0,0.3-0.1,0.6-0.1,0.9c-0.1,0.1-0.2,0.2-0.4,0.3c-0.4,0.2-0.9,0.4-1.5,0.4
				c-0.1,0-0.3,0-0.4-0.1c-0.2,0-0.3-0.1-0.5-0.1c-0.1-0.3-0.2-0.6-0.3-1c0-0.1,0-0.1,0-0.2c0,0,0,0,0,0c0-0.1-0.1-0.3-0.1-0.4
				c0,0,0,0,0-0.1c-0.1-0.9,0.1-1.7,0.4-2.3c0.3-0.5,0.6-0.8,1-0.8C1654.7,462.3,1655.5,463.5,1655.7,465.2
				C1655.7,465.2,1655.7,465.2,1655.7,465.2z"/>
			<path class="st16" d="M1649.9,465.7c0,0,0-0.3,0.1-0.9c0.1-0.5,0.2-1.3,0.3-2.1c0.4-2.1,1-4.6,2-5.3c0.2-0.1,0.3-0.2,0.5-0.2
				c0.1,0,0.2,0,0.3,0c0.5,0.1,1,0.5,1.4,1.2c0.1,0.2,0.3,0.5,0.4,0.7c0.7,1.6,1.1,3.7,1.3,5.2c0.1,0.9,0.2,1.5,0.2,1.5s0,0,0-0.1
				c0-0.2,0.1-1,0.1-2c0-1.2-0.1-2.9-0.4-4.3c-0.1-0.4-0.2-0.7-0.3-1.1c-0.5-1.6-1.4-2.8-3-2.8c-0.8,0-1.3,0.5-1.8,1.2l0,0
				c-0.3,0.6-0.6,1.4-0.7,2.2c-0.1,0.6-0.2,1.3-0.3,2c-0.1,1.2-0.1,2.4-0.2,3.3c0,0.1,0,0.1,0,0.2c0,0.1,0,0.2,0,0.3
				C1649.8,465.2,1649.9,465.7,1649.9,465.7z"/>
			<path class="st29" d="M1656.3,465.7c0,0,0,0.1-0.1,0.2v0c0,0,0,0,0,0c-0.1,0.2-0.3,0.4-0.6,0.7c-0.1,0.1-0.2,0.2-0.4,0.3
				c-0.4,0.2-0.9,0.4-1.5,0.4c-0.1,0-0.3,0-0.4-0.1c-0.2,0-0.3-0.1-0.5-0.1c-0.6-0.1-1.1-0.3-1.6-0.5c-0.1,0-0.1,0-0.2-0.1
				c0,0-0.1,0-0.1,0c-0.6-0.2-1-0.4-1-0.4s0.4-0.1,1-0.3c0,0,0,0,0.1,0c0,0,0,0,0.1,0c0.4-0.1,0.9-0.2,1.4-0.4c0,0,0.1,0,0.1,0
				c0.1,0,0.1,0,0.2,0c0.8-0.2,1.6-0.3,2.3-0.3c0.2,0,0.4,0,0.6,0c0,0,0,0,0.1,0c0,0,0,0,0,0c0.2,0,0.4,0.1,0.5,0.1c0,0,0,0,0,0
				C1656.6,465.4,1656.3,465.7,1656.3,465.7z"/>
		</g>
		<path class="st31" d="M1645.1,454.4c0,0,2.1,4.4,3.5,10.2c1.4,5.7,2.3,8.8,2.3,8.8s0.4-3.7-0.8-8.5
			C1648.8,460.1,1645.1,454.4,1645.1,454.4z"/>
		<path class="st31" d="M1641.1,475c0,0,0.8-1.2,2.1-0.7c1.2,0.5,1.4,1.5,1.4,1.5S1642.1,474.8,1641.1,475z"/>
		<path class="st16" d="M1630.1,476.7c0,0,5.4,1.6,10.4,3.2c5.3,1.7,9.7,1,9.7,1l-1.8,3.3c0,0-3.8,3.9-9.5,1.6
			c-5.7-2.4-9.3-8.2-9.3-8.2L1630.1,476.7z"/>
		<path class="st16" d="M1636.3,453.2c0,0,0.4-0.4,1.7-2.5c1.3-2.2,1.3-2.2,1.3-2.2l-2.4,2.4l1.1-3l-2.2,1.7l0.9-2.3
			c0,0-4,0.2-8.6,2.1c-4.6,1.9-8.2,4.6-8.2,4.6s1,1.8,2.4,1.7c1.4-0.1,6-2.1,8.6-2.3C1633.4,453.4,1636.3,453.2,1636.3,453.2z"/>
		<path class="st16" d="M1647,452.4v-4.9l0.6,2.1l0.6-2.7l0.5,2.8l0.3-2.8c0,0,5.4,1.3,7.9,3.2c2.5,1.9,3.1,3.7,3.1,3.7
			s-0.5,1-1.7,1.1c-1.2,0.1-3.3-1.2-5.6-1.9C1650.5,452.4,1647,452.4,1647,452.4z"/>
		<path class="st22" d="M1631.4,477.8c0,0,4.4,1.8,9.7,3.2c5.2,1.4,8,0.7,8,0.7s-2,1.7-4.5,2c-2.5,0.3-6.9-1.7-9.5-3.5
			C1632.5,478.5,1631.4,477.8,1631.4,477.8z"/>
		<path class="st32" d="M1641.1,470.6c0,0-1.3,2.2-1.2,3.4s0.2,1.2,0.2,1.2s-1.6-0.3-1.2-2.3
			C1639.1,470.9,1641.1,470.6,1641.1,470.6z"/>
		<path class="st16" d="M1602.4,469.7c0,0-2.8-4-9.5-0.8c-6.7,3.2,12.6,18.6,16.6,18.6"/>
		<path class="st16" d="M1608.8,478.6c0,0-4.7-3.1-8.9-4.4c-4.2-1.2-5.3-0.9-5.3-0.9s3.2,1.3,7,3.5
			C1605.5,478.9,1608.8,478.6,1608.8,478.6z"/>
		<path class="st16" d="M1606.4,477.8c0,0,1.5,3.4,0,4.8c-1.5,1.4-4,0-4,0s3.5,0.3,3.1-2.1c-0.4-2.4-1.4-2.7-1.4-2.7H1606.4z"/>
		<path class="st16" d="M1610.2,476.4l-7.8-7c0,0-8.8-12.2-9.7-18.4c-0.9-6.2,5-14.4,13.7-23.5c4.9-5.1,7.4-7.6,9.3-9.3c0,0,0,0,0,0
			c1.5-1.3,2.6-2.1,4.2-3.2c3.7-2.6,8.2-1.7,8.2-1.7s-4.3,0.6-6.4,2.5c-2.1,1.9-1.8,2.5-1.8,2.5s9.9-3.7,19.4-3.4
			c9.5,0.3,13.1,3,13.1,3l-6.3,0.3c0,0,9.7,3.6,13.2,8.8c3.4,5.3,3.6,9.4,6,11.8c1.9,1.9,3.6,2,4.1,1.9c-1.2,0.2-6.8,1-9.4,0.6
			c-2.8-0.4-2.8-0.4-2.8-0.4s1.5,1.4,2.8,2.5c1.3,1.1,3.2,1.8,3.2,1.8s-5.1,0.2-11.1-2"/>
		<path class="st16" d="M1616.5,568.7c0.9-0.4,1.8-0.7,2.7-1.1c13.6-5.4,31.5-8.9,33.7-10.4c2.6-1.7,7.9-2,10.9-2.2
			c3.1-0.1,10.1,0.7,10.8,1.1"/>
		<path class="st16" d="M1656.8,566.4c-0.9,1.8-4.6,9-10.5,18.2c-6.7,10.3-22.9,22.2-25.7,23c-2.8,0.8-6,3.3-10.1,1.7
			c-4.1-1.6-17.3-12.9-17.3-12.9"/>
		<path class="st16" d="M1694.5,573.9c0,0-0.7,3.7-2.2,8.9c-1.1,3.9-2.6,7.6-4.5,8.8c-4.5,2.8-20,2.9-30.2,2.4
			c-10.2-0.6-16.7-2.6-16.7-2.6s6.2-7.4,10-14.2c3.8-6.8,5.9-10.9,5.9-10.9s4-0.7,10.7-1h0c1.7-0.1,3.5-0.1,5.4-0.1
			C1683.7,565.2,1694.5,573.9,1694.5,573.9z"/>
		<path class="st16" d="M1616.5,568.7"/>
		<path class="st16" d="M1656.8,566.4c-0.9,1.8-4.6,9-10.5,18.2c-6.7,10.3-22.9,22.2-25.7,23c-2.8,0.8-6,3.3-10.1,1.7
			c-4.1-1.6-17.3-12.9-17.3-12.9"/>
		<path class="st32" d="M1657.9,566"/>
		<path class="st32" d="M1657.8,565.2"/>
		<path class="st16" d="M1650.8,593.4c0,0,7.1-11.5,10-19c2.9-7.5,2.9-8.9,2.9-8.9l-7,0.8c0,0-10.1,17.8-15.9,25.1
			C1640.9,591.5,1648.9,593.2,1650.8,593.4z"/>
		<path class="st16" d="M1609.2,562.5c-0.8-4.8-1.6-10.7-1.9-15.5c-0.5-10.1-22.7-17.7-31.9-16c0,0-2.3,16.5-2,27
			c0.2,6.8,1.6,11.9,2.6,14.7"/>
		<path class="st16" d="M1573.5,579.5c1.3,1.9,7.1,0.8,9.8,4.1c2.7,3.3,2.5,8.5,4.4,10.7c1.9,2.2,5.5,2,5.5,2s4.4-13.8,9.6-18.4"/>
		<path class="st16" d="M1649,516.8c0,0-10.8,2.4-19.1-1.4c-8.4-3.7-25.2-12.5-25.2-12.5l0.6-0.6l2.2-2.1l0.2-0.2l0,0
			c0,0,12.4,9.2,22.9,10.1c10.4,1,12.8-6.4,12.8-6.4l0.1,0l3,0.8c0,0,0,0,0,0c0,0.2-0.4,1.5-1.9,3.4c-1.6,2-6.6,4.2-6.6,4.2
			s0,0,2.8,1.7C1643.7,515.7,1649,516.8,1649,516.8z"/>
		<path class="st16" d="M1612.1,526.6c0,0,10.9,5.3,17.1,10.2c6.2,4.9,13.2,3.5,13.2,3.5s-6.5,4-17.1-1.5
			C1614.9,533.4,1612.1,526.6,1612.1,526.6z"/>
		<path class="st16" d="M1638.9,530.7c0,0,5,0,12.1-6c7.1-6,11.6-11.1,11.6-11.1s-4.6,11.4-11.8,15.7
			C1643.5,533.7,1638.9,530.7,1638.9,530.7z"/>
		<path class="st16" d="M1573.5,528.8c0,0,16.5-0.2,23.8,5.3c7.3,5.5,9.2,9.9,9.2,9.9s-7.5-8.4-16.7-10.5
			c-9.2-2.1-14.5-2.5-14.5-2.5S1573.9,530.2,1573.5,528.8z"/>
		<path class="st16" d="M1574.3,580.2c0,0,2.7-3.5,9.8-8.7c7.1-5.2,7-5.9,7-5.9s-10.4,2.6-16.8,8.3
			C1570.2,577.8,1574.3,580.2,1574.3,580.2z"/>
		<path class="st33" d="M1615.9,532.6c-2.8,0-5.2-0.2-7-0.9c-10.2-3.5-15.3-3.9-20.1-6.2c-4.8-2.3-8-4.4-8-4.4l26.9-21.1l0,0
			c0,0,12.4,9.2,22.9,10.1c10.4,1,12.8-6.4,12.8-6.4l0.1,0c0.3,0.1,1.5,0.4,3,0.8c0.8,0.2,1.8,0.4,2.8,0.6c1.3,0.3,4.7,0.5,8.6,0.7
			c-0.2,0.4-3.4,6.8-7,14.1"/>
		<path class="st16" d="M1672.8,547.3c0.6-7.2-5.8-21.5-5.5-24.9c0.2-3.4,6.4-10.1,6.4-10.1s7.6,6.5,14.3,18.5
			c6.7,12,8.6,23.3,8.6,23.3s2.4,0.1,3.1,1.9c0.7,1.8-3.3,7-1.9,9.2c1.4,2.2,4,4.8,2,7.2s-5.1,2-5.1,2s-2.5-3.5-10.3-6.2
			c-7.8-2.8-15.4-2.9-15.4-2.9"/>
		<path class="st16" d="M1673.8,508.1c0,0-1.8,1.5-4.7,6.5c-2.9,5-1.4,9-1.4,9s1.6-7.1,5.9-11.3
			C1673.6,512.3,1674.7,509,1673.8,508.1z"/>
		<path class="st16" d="M1655.1,794.4c-0.7,1.9-5.6,2.4-5.6,2.4v5.8c0,0-5.1,0-9.3-1.7c-4.2-1.7-4.4-3.7-4.4-3.7l1.4-2.9
			c0,0-3.9-3.1-2.5-5.6c1.4-2.5,7.1-2.7,7.1-2.7s-3.5-5.7-1.3-18.6"/>
		<path class="st16" d="M1666.9,628.5c0,0,24.2,57.4,26.9,80.5c1.5,12.9-10.7,35.6-21.9,53.3"/>
		<path class="st16" d="M1667.9,713.7l-6.6-47.7c0,0,2.2-9.5,1.7-11.5c-0.5-2-3.3-2.7-4.3-6.4c-1-3.7-4-6.7-5.9-6.8
			c-1.9-0.1-2.8,1.7-14.9,4.6c-11.6,2.8-27.9-4.1-27.9-4.1l-1.7-0.5"/>
		<path class="st16" d="M1692.4,821l1.5,5.2c-4.9,4-12.5,3.1-12.5,3.1l-1.5-3.1c0,0-7.3,1.4-7.7-2.4c-0.3-3.8,3.2-4.8,3.2-4.8
			s-11.1-13.1-20.3-24.7c-3.5-4.4-6.8-8.5-9-11.7c-8.3-11.4-8.8-44.3-8.8-44.3s-5.3-0.7-5.8-2.4c-0.5-1.7,5.8-7.8,5.8-7.8
			s-7.1-15.6-18-34.5c-10.8-18.8-10.9-52.4-10.9-52.5l0,0c0.9,0.3,15.9,4.9,23.5,5.5c7.8,0.6,17.7-6.5,20.8-5.5
			c3.2,1,4.1,3.1,5.5,6.2s2.8,4,4.3,6.1c1.5,2.1-1.6,13.4-1.6,13.4s2.9,19,5.9,39.2c2.9,20.2,1.6,29.2,1.6,29.2s0,3.1,2.7,23.1
			c0.2,1.3,0.4,2.6,0.7,4c2,10.3,6.2,23.6,9.9,34.2c0,0,0,0,0,0s0,0,0,0c3.6,10.3,6.7,18,6.7,18s1.7,0.8,3.6,2.4
			C1694,818.7,1692.4,821,1692.4,821z"/>
		<path class="st34" d="M1692.4,821l1.5,5.2c-4.9,4-12.5,3.1-12.5,3.1l-1.5-3.1c0,0-7.3,1.4-7.7-2.4c-0.3-3.8,3.2-4.8,3.2-4.8
			s-21.1-25-29.4-36.4c-8.3-11.4-8.8-44.3-8.8-44.3s-5.3-0.7-5.8-2.4c-0.5-1.7,5.8-7.8,5.8-7.8s-7.1-15.6-18-34.5
			c-10.8-18.8-10.9-52.4-10.9-52.5l0,0c0.9,0.3,15.9,4.9,23.5,5.5c0,0-4.9,30.5-3.8,40.4c1,9.9,14.9,33,16,37.8
			c1,4.8-5.7,4.5-3.2,10.4c2.5,5.9,5.5,23.9,10.3,38.2c4.7,14,29.8,22.9,30.6,23.2c0,0,0,0,0,0s0,0,0,0c3.6,10.3,6.7,18,6.7,18
			s1.7,0.8,3.6,2.4C1694,818.7,1692.4,821,1692.4,821z"/>
		<path class="st16" d="M1693.1,826.9c0,0,13.3,6.9,19.8,10.3c6.6,3.4,12.1,3.3,14.7,4.4c2.6,1.1,2.7,4.1,2.7,4.1
			s-17.7,10.2-27.9,6.2c-10.2-4-9.3-7.8-13.7-9.1c-4.4-1.2-7.1-1-7.6-1.9c-0.5-0.9,0.2-8.6,1.1-11.5
			C1682.3,829.4,1689.6,829.4,1693.1,826.9z"/>
		<path class="st16" d="M1636.8,798.9c0,0-4.7,3.7-6.3,6.5c-1.6,2.7-1.9,5.5-1.9,5.5s7.8,2.7,12.2,7.7c4.4,5,6.1,8.3,10.7,10.8
			c4.6,2.5,17.9,0,17.9,0s-0.7-5.3-3.2-6.5c-2.5-1.1-5.4-1.5-8-4.1c-2.6-2.6-9.6-11.6-9.6-13.9c0-2.3,0-2.3,0-2.3
			S1641.5,802.7,1636.8,798.9z"/>
		<path class="st16" d="M1609.4,572.7c-3.3,2.9-11.5,10.9-16.2,23.7c0,0-3.1,0-4.3-1c0,0,2.6-8.9,8.6-15.2c2.1-2.2,4.1-4.1,5.8-5.7"
			/>
		<path class="st16" d="M1608.7,562.8c0,0-2.7-5.4-8-3.9c-5.2,1.6-9.3,5.1-9.4,7.3c-0.1,2.3,2.5,1.8,5.3,0.7
			c2.8-1.1,5.1-1.8,5.1-1.8s-5.7,4.2-6.3,5.5s1.6,2.8,4,2c2.4-0.8,2.4-0.8,2.4-0.8s-0.8,2.2,1.8,2.1c2.5-0.1,7.8-7.6,9.1-7.6
			c1.3,0,1.3,0,1.3,0S1610.3,563.1,1608.7,562.8z"/>
		<path class="st16" d="M1619.6,567.8c0.1-1.3-4.2-2.6-7.3-1.5c-3.1,1.1-4.5,5-3.9,6.1c0.6,1.1,2.7,1.4,4.1-0.9
			C1613.8,569.2,1619.6,567.8,1619.6,567.8z"/>
		<path class="st16" d="M1599.4,572.7c0,0,4.8-4.7,7.2-6.4c2.3-1.6,2.3-1.6,2.3-1.6l-7.1,7.1L1599.4,572.7z"/>
		<path class="st16" d="M1595.1,567.5c0,0,3.9-3.4,6.5-4.9c2.6-1.5,6.3-0.9,6.3-0.9l0.7,1.1c0,0-4.2,0.3-6.9,2.4L1595.1,567.5z"/>
	</g>
</g>
</svg>
